/* XPM */
static char * pichu_xpm[] = {
"64 64 15 1",
" 	c None",
".	c #809D49",
"+	c #669344",
"@	c #101010",
"#	c #505050",
"$	c #E0B040",
"%	c #F8E880",
"&	c #C08800",
"*	c #F8F8C0",
"=	c #707070",
"-	c #F8F8F8",
";	c #805000",
">	c #F87048",
",	c #702008",
"'	c #C04028",
"....++...+..........++...+..........++...+..........++...+......",
"++.........+...+++.........+...+++.........+...+++.........+...+",
"+.......++..+..++.......++..+..++.......++..+..++.......++..+..+",
".++..+.++..++++..++..+.++..++++..++..+.++..++++..++..+.++..++++.",
".+.++..++.+++++..+.++..++.+++++..+.++..++.+++++..+.++..++.+++++.",
"++.++....+++++..++.++....+++++..++.++....+++++..++.++....+++++..",
"++.....++++++..+++.....++++++..+++.....++++++..+++.....++++++..+",
"+...+..+.++++..++...+..+.++++..++...+..+.++++..++...+..+.++++..+",
"....+.++.++.........+.++.++.........+.++.++.........+.++.++.....",
".....+++.............+++.............+++.............+++........",
"....+++....++.......+++....++.......+++....++.......+++....++...",
".+..+.....+......+..+.....+......+..+.....+......+..+.....+.....",
"+........++....++........++....++........++....++........++....+",
"..............++..............++..............++..............++",
"......................@@........................................",
"......+..............@#@@.............+...............+.........",
"....++...+..........+@#@@@..........++...+.@@@@.....++...+......",
"++.........+...+++...@##@@@+...+++.......@@###@+++.........+...+",
"+.......++..+..++....@##@@@@+..++......@@####@@++.......++..+..+",
".++..+.++..++++..++..@###$@@@++..++..@@##@#@@@@..++..+.++..++++.",
".+.++..++.+++++..+.++@#$#%&#@@+..+.+@##@%$@@@@+..+.++..++.+++++.",
"++.++....+++++..++.++@#%$%%%@@..++.+@@@%%#@@@@..++.++....+++++..",
"++.....++++++..+++...@#%%%%%%@.+++..@%%%%%%@@@.+++.....++++++..+",
"+...+..+.++++..++...+@#%%%%%@$$$$$..@%%%%%%@@..++...+..+.++++..+",
"....+.++.++.........+.@&%%%$$%%%%%&@&%%%%%@@@.......+.++.++.....",
".....+++.............+++&%$*****%%%%&%%%$&@@.........+++........",
"....+++....++.......+++.$*******%%%%%%%@@@@++.......+++....++...",
".+..+.....+......+..+..&%=******%@@%%%&...+......+..+.....+.....",
"+........++....++......$@-$*****=-@@%%&..++....++........++....+",
"..............++......&%@@$****%=@=@%%$;......++..............++",
"......................&%;=%%&%%%%@@$>>$@........................",
"......+...............&>%%%$,,,'%%%>>>'@..............+.........",
"....++...+..........++&>%%%%,'''%%%>>>';.+..........++...+......",
"++.........+...+++.....;$%%%%>>&%%%$''@....+...+++.........+...+",
"+.......++..+..++.......@$$%%>>%%$$&;@..++..+..++.......++..+..+",
".++..+.++..++++..++..+.;**@;$$$$$$;;**@++..++++..++..+.++..++++.",
".+.++..++.+++++..+.++..;%%$&@@@@@@%%%$@++.+++++..+.++..++.+++++.",
"++.++....+++++..++.++...@$$%#@@@@&%%$@...+++++..++.++....+++++..",
"++.....++++++..+++.....++;@**#*#*%%&@..++++++..+++.....++++++..+",
"+...+..+.++++..++...+..+&&&******%%%@..+.++++..++...+..+.++++..+",
"....+.++.++.........+.+&$%;%****%%%&&.++.++.........+.++.++.....",
".....+++.............++&%%$&%%%%%$&%%@++.............+++........",
"....+++....++.......+++.$%$@&$$$$$;$$@+....++.......+++....++...",
".+..+.....+......+..+...;$$@@;$$$$;$$@....+......+..+.....+.....",
"+........++....++........@@...@@@@@;@....++....++........++....+",
"..............++..............++..@#@@........++..............++",
"...................................@#@@.........................",
"......+...............+...........@==#@...............+.........",
"....++...+..........++...+.......@==#@@..+..........++...+......",
"++.........+...+++.........+...++@=#@@.....+...+++.........+...+",
"+.......++..+..++.......++..+..++.@@@@..++..+..++.......++..+..+",
".++..+.++..++++..++..+.++..++++..++@@+.++..++++..++..+.++..++++.",
".+.++..++.+++++..+.++..++.+++++..+.++..++.+++++..+.++..++.+++++.",
"++.++....+++++..++.++....+++++..++.++....+++++..++.++....+++++..",
"++.....++++++..+++.....++++++..+++.....++++++..+++.....++++++..+",
"+...+..+.++++..++...+..+.++++..++...+..+.++++..++...+..+.++++..+",
"....+.++.++.........+.++.++.........+.++.++.........+.++.++.....",
".....+++.............+++.............+++.............+++........",
"....+++....++.......+++....++.......+++....++.......+++....++...",
".+..+.....+......+..+.....+......+..+.....+......+..+.....+.....",
"+........++....++........++....++........++....++........++....+",
"..............++..............++..............++..............++",
"................................................................",
"......+...............+...............+...............+........."};
