/* XPM */
static char * pikachu_xpm[] = {
"64 64 14 1",
" 	c None",
".	c #809D49",
"+	c #669344",
"@	c #101010",
"#	c #666666",
"$	c #E8B800",
"%	c #F8E800",
"&	c #C08800",
"*	c #805000",
"=	c #F8F878",
"-	c #F8F8F8",
";	c #E00000",
">	c #F84848",
",	c #B00000",
"....++...+..........++...+..........++...+..........++...+......",
"++.........+...+++.........+...+++.........+...+++.........+...+",
"+.......++..+..++.......++..+..++.......++..+..++.......++..+..+",
".++..+.++..++++..++..+.++..++++..++..+.++..++++..++..+.++..++++.",
".+.++..++.+++++..+.++..++.+++++..+.++..++.+++++..+.++..++.+++++.",
"++.++....+++++..++.++....+++++..++.++....+++++..++.++....+++++..",
"++.....++++++..+++.@...++++++..+++.....++++++..+++.....++++++..+",
"+...+..+.++++..++.@@@..+.++++..++...+..+.++++..++...+..+.++++..+",
"....+.++.++.......@@@.++.++.........+.++.++.........+.++.++.....",
".....+++..........@#@@++.............+++.............+++........",
"....+++....++....@##@@+....++.......+++....+@@@.....+++....++...",
".+..+.....+......@###@@...+......+..+....@@@##@..+..+.....+.....",
"+........++....++@###$@..++....++......@@####@@++........++....+",
"..............++.@##%%@.......++.....&$%####@@++..............++",
"..................@%%%$@............&%%%###@@@..................",
"......+...........&%%%$@..........&$%%%%$#@@@.........+.........",
"....++...+........&%%%$@.+.......*%%%%%%%@@@........++...+......",
"++.........+...+++.$%$$@&&$$$&&**%%%%%%%$@@+...+++.........+...+",
"+.......++..+..++..&$$&&=====%%$%%%%%%$$@+..+..++.......++..+..+",
".++..+.++..++++..++.*$========%%%%%%$$@@+..++++..+&&.+.++..++++.",
".+.++..++.+++++..+.$%%========%%%%%$*@.++.+++++.&$=%*..++.+++++.",
"++.++....+++++..++*%%%%=====%$@@$%%$*....+++++.&=%%%*....+++++..",
"++.....++++++..+++&$@@%%%%%%%@-@@%%$$@.++++++.&=%%%$*..++++++..+",
"+...+..+.++++..++&%@-@%%%%%%%@@#@%%$$@.+.+++&$=%%$$$$*.+.++++..+",
"....+.++.++......*%@@#%%%%%%%$@@$%%$$*++.++&==%$$$$$$*++.++.....",
".....+++........*$%&@$%%*$%%%%%%%;;$$$@+.$$%%%$$$$$$$*++........",
"....+++....++...@>%%%%$%%%%%&%%%;;;,$$@**%%$$$$$$$$$$*+....++...",
".+..+.....+.....@;$%%%%&,,,,$%%%;;;,$**=&*$$$$$$$$$$$*....+.....",
"+........++....*+@,%%%%%,,>>%%%%;;,,*=&%==*$$$$$$$$$$@...++....+",
"..............*=**,%%%%%,>>,%%%%%,,$*%%%%&*$$$$$$$$*@.........++",
".............*=%%$*%%%%%%,,%%%%%%%$*%%%%%%@$$$$$$*@.............",
"......+.......&%%$$*%%%%%%%%%%%%%%*%%%%$$@$$$$$*@.....+.........",
"....++...+....*$$$$&&%%%%%%%%%%%%%%%%%$$$@$$$$*.....++...+......",
"++.........+...@$$$&%%%%%%%%%%%%%%%%%$$$@*$$$@.+++.........+...+",
"+.......++..+..+@$$$%%%%%%%%%%%%%%%%$$$@++*$$$@++.......++..+..+",
".++..+.++..++++..@*%%%%%%%%%%%%%%%%$$$$@+..*$$$@.++..+.++..++++.",
".+.++..++.+++++..+&%%%%%%%%%%%%%%%%$$&*++**$$$$$@+.++..++.+++++.",
"++.++....+++++..+*%%%%%%%%%%%%%%%%%$&$*@@%$$$$*@++.++....+++++..",
"++.....++++++..++&%%%%%%%%%%%%%%%%%$$$*%$$$$*@.+++.....++++++..+",
"+...+..+.++++..+*%%%%%%%%%%%%%%%%$$$$*$$$$@@+..++...+..+.++++..+",
"....+.++.++....***%%%%%%%%%%%%%%$$$$$@$$$@+.........+.++.++.....",
".....+++......*==&*%%%%%%%%%%%%%$$$$$@@$$$@..........+++........",
"....+++....++.&&%&%*%%%%%%%%%%%$$$$$$@+@&&$@+.......+++....++...",
".+..+.....+...*$$$$&%%%%%%%%%$$$$$$$$@@***&$@....+..+.....+.....",
"+........++....&$$$$*$$%%%%$$$$$$$$$$****@@@...++........++....+",
"..............++*$$$*$$$$$$$$$$$$$$$**@@@.....++..............++",
"................@$$$@$$$$$$$$$$$$$$$@@..........................",
"......+..........*@@$$$$$$$$$$$$$$$&@.+...............+.........",
"....++...+..........@@@@*&$$$$$$$$$@++...+..........++...+......",
"++.........+...+++.......@@*$$$$$*@........+...+++.........+...+",
"+.......++..+..++.......++.@@&&@@@......++..+..++.......++..+..+",
".++..+.++..++++..++..+.++..*&&&&@++..+.++..++++..++..+.++..++++.",
".+.++..++.+++++..+.++..++.+*&*&&@+.++..++.+++++..+.++..++.+++++.",
"++.++....+++++..++.++....++*$&$@++.++....+++++..++.++....+++++..",
"++.....++++++..+++.....+++++@@@+++.....++++++..+++.....++++++..+",
"+...+..+.++++..++...+..+.++++..++...+..+.++++..++...+..+.++++..+",
"....+.++.++.........+.++.++.........+.++.++.........+.++.++.....",
".....+++.............+++.............+++.............+++........",
"....+++....++.......+++....++.......+++....++.......+++....++...",
".+..+.....+......+..+.....+......+..+.....+......+..+.....+.....",
"+........++....++........++....++........++....++........++....+",
"..............++..............++..............++..............++",
"................................................................",
"......+...............+...............+...............+........."};
