/* XPM */
static char *d6863c1695f342a2ce9e95a89034803aJOqUc6pC5gRjOBVm[] = {
/* columns rows colors chars-per-pixel */
"64 64 99 2 ",
"   c #669344",
".  c #6C9445",
"X  c #719646",
"o  c #789543",
"O  c #719748",
"+  c #759949",
"@  c #7E9B49",
"#  c #DF9F3F",
"$  c #EDAC2D",
"%  c #EEB02F",
"&  c #F1B32B",
"*  c #E6A537",
"=  c #E8A734",
"-  c #EAAA32",
";  c #E2A23C",
":  c #EEB333",
">  c #EAB43C",
",  c #F3BE33",
"<  c #8E9E47",
"1  c #809D49",
"2  c #8A9E4A",
"3  c #959D47",
"4  c #9D9E46",
"5  c #919E49",
"6  c #9E9F49",
"7  c #8A9F50",
"8  c #A59D46",
"9  c #AB9F46",
"0  c #8BA14D",
"q  c #91A34F",
"w  c #99A14F",
"e  c #8DA152",
"r  c #95A451",
"t  c #9AA553",
"y  c #9FA854",
"u  c #A4A34D",
"i  c #ACA048",
"p  c #A1A754",
"a  c #A3A956",
"s  c #A9AA56",
"d  c #A4A959",
"f  c #ABAC5A",
"g  c #BAA853",
"h  c #B3AC59",
"j  c #B7B05E",
"k  c #BAB05C",
"l  c #B9B261",
"z  c #F6D153",
"x  c #F6D65C",
"c  c #F8DA5D",
"v  c #EBC66E",
"b  c #EDCB68",
"n  c #EDCB6A",
"m  c #ECCA6B",
"M  c #EFCE68",
"N  c #EFCE6B",
"B  c #EDCA6C",
"V  c #EECC6C",
"C  c #F0CF66",
"Z  c #F0CF6A",
"A  c #F0CF6C",
"S  c #F2D163",
"D  c #F0D165",
"F  c #F4D667",
"G  c #F6D863",
"H  c #F7D965",
"J  c #F9DD61",
"K  c #F8DB65",
"L  c #F8DC64",
"P  c #F1D169",
"I  c #F1D06A",
"U  c #F3D469",
"Y  c #F4D669",
"T  c #F2D36C",
"R  c #F7DA69",
"E  c #F6D96D",
"W  c #F6DA6C",
"Q  c #F9DE69",
"!  c #F8DD6F",
"~  c #F2D471",
"^  c #F6DB70",
"/  c #F6DC74",
"(  c #F7DE7A",
")  c #FAE26F",
"_  c #FAE170",
"`  c #F9E175",
"'  c #FBE476",
"]  c #FAE37C",
"[  c #FAE382",
"{  c #F8EAAF",
"}  c #FAEDB7",
"|  c #F3E5BB",
" . c #F7EABD",
".. c #FAEEBF",
"X. c #F3E7C5",
"o. c #F7ECC3",
"O. c #FAEEC2",
"+. c #F7EDCB",
"@. c #FAF0CB",
/* pixels */
"1 1 1 1     1 1 1   1 1 1 1 1 1 1 1 1 1     1 1 1   1 1 1 1 1 1 1 1 1 1     1 1 1   1 1 1 1 1 1 1 1 1 1     1 1 1   1 1 1 1 1 1 ",
"    1 1 1 1 1 1 1 1 1   1 1 1       1 1 1 1 1 1 1 1 1   1 1 1       1 1 1 1 1 1 1 1 1   1 1 1       1 1 1 1 1 1 1 1 1   1 1 1   ",
"  1 1 1 1 1 1 1     1 1   1 1     1 1 1 1 1 1 1     1 1   1 1     1 1 1 1 1 1 1     1 1   1 1     1 1 1 1 1 1 1     1 1   1 1   ",
"1     1 1   1     1 1         1 1     1 1   1     1 1         1 1     1 1   1     1 1         1 1     1 1   1     1 1         1 ",
"1   1     1 1     1           1 1   1     1 1     1           1 1   1     1 1     1           1 1   1     1 1     1           1 ",
"    1     1 1 1 1           1 1     1     1 1 1 1           1 2 .   1     1 1 1 1           1 1     1     1 1 1 1           1 1 ",
"    1 1 1 1 1             1 1       1 1 1 1 1             1 2 O O . 1 1 1 1 1             1 1       1 1 1 1 1             1 1   ",
"  1 1 1   1 1   1         1 1     1 1 1   1 1   1         2 0 v 1 q 0 1   1 1   1         1 1     1 1 1   1 1   1         1 1   ",
"1 1 1 1   1     1     1 1 1 1 1 @ 1 1 1 . 1     1     1 1 1 0 r B t q 2   1     1     1 1 1 1 1 1 1 1 1   1     1     1 1 1 1 1 ",
"1 1 1 1 1       1 1 1 1 1 1 1 1 @ 1 1 2 2 . .   1 1 1 1 1 1 0 t B B t 0 1       1 1 1 1 1 1 1 1 1 1 1 1 1       1 1 1 1 1 1 1 1 ",
"1 1 1 1       1 1 1 1     1 1 1 1 1 2 2 # . . 1 1 1 1     1 2 q t B t q .     1 1 1 1     1 1 1 1 1 1 1       1 1 1 1     1 1 1 ",
"1   1 1   1 1 1 1 1   1 1 1 1 1 1 . 2 2 . 2 1 1 1 1   1 1 1 1 0 q 2 B t @ 0 1 1 1 1   1 1 1 1 1 1   1 1   1 1 1 1 1   1 1 1 1 1 ",
"  1 1 1 1 1 1 1 1     1 1 1 1   . 2 2 2 2 1 1 @ 1     1 1 1 1   . q t B t q 2 1 1     1 1 1 1     1 1 1 1 1 1 1 1     1 1 1 1   ",
"1 1 1 1 1 1 1 1 1 1 1 1 1 1     1 2 # 2 2 1 1 1 1 1 1 1 1 1     1 0 t B B t 0 1 1 1 1 1 1 1     1 1 1 1 1 1 1 1 1 1 1 1 1 1     ",
"1 1 1 1 1 1 1 1 1 1 1 1 1 1 1 1 1 1 2 2 1 1 1 1 1 1 1 1 1 1 1 1 1 2 q t B y r 0 1 1 1 1 1 1 1 1 1 1 1 1 1 1 1 1 1 1 1 1 1 1 1 1 ",
"1 1 1 1 1 1   1 1 1 1 1 1 1 1 1 1 1 2 1 1 2 O 0 2 1 1 1 1 1 1 1 1 1 0 r y B e r 0 1 1 1 1 1 1 1 1 1 1 1 1 1   1 1 1 1 1 1 1 1 1 ",
"1 1 1 1     1 1 1   1 1 1 1 1 1 @ @ @ 1 O + r r 0 . @ @ 1 1 1 1 1 1 1 0 7 N N a q . 1 1 1 1 1 1 1 1 1 1     1 1 1   1 1 1 1 1 1 ",
"    1 1 1 1 1 1 1 1 1   1 2 1       1 0 r y B B 0 2 @   1 1 1       1 0 a j P P a 0 1   1 1 1       1 1 1 1 1 1 1 1 1   1 1 1   ",
"  1 1 1 1 1 1 1     1 1 . 2 2 .   1 2 q a N N t + . 1 1   1 1     1 0 t f F H F t 1 2 1   1 1     1 1 1 1 1 1 1     1 1   1 1   ",
"1     1 1   1     1 1 . . # . 2 1   O t N P f 2 O 1 1         1 1 O 1 f U H L H P t 0         1 1     1 1   1     1 1         1 ",
"1   1     1 1     1   . . X . 2 1   0 e Z P f 1 . 1           2 0 2 f U H L K F Z t O         1 1   1     1 1     1           1 ",
"    1     1 1 1 1     . X o 2 2     0 2 N P f t 0           0 q e d U H H H F P a @ .       1 1     1     1 1 1 1           1 1 ",
"    1 1 1 1 1         . X ; 2 .     2 q a N N r 1 O       0 r r P F F H F P f e @ O       1 1       1 1 1 1 1             1 1   ",
"  1 1 1   1 1   1     . X ; 2 .   1 1 2 1 a N N a 1 O . O r f P U F U P t a r + 2         1 1     1 1 1   1 1   1         1 1   ",
"1 1 1 1   1     1     2 2 2 2 1 1 1 1 1 . r e n n e 1 0 r a P P U P f a 1 0 .   1     1 1 1 1 1 1 1 1 1   1     1     1 1 1 1 1 ",
"1 1 1 1 1       1 1 1 1 1 2 1 1 1 1 1 @ 1 . 1 r n n a a p N Z P f a r 0 2       1 1 1 1 1 1 1 1 1 1 1 1 1       1 1 1 1 1 1 1 1 ",
"1 1 1 1       1 1 1 1     1 1 2 1 1 1 @   . + p h N N t n V a a r 0 2 1     . 2 2 2 1     1 1 1 1 1 1 1       1 1 1 1     1 1 1 ",
"1   1 1   1 1 1 1 1   1 1 1 2 2 2 . 1 1 . 0 t s > h N n t t r 0 2   1 1   2 < 5 < 2 . 1 1 1 1 1 1   1 1   1 1 1 1 1   1 1 1 1 1 ",
"  1 1 1 1 1 1 1 1     1 1 2 2 # . 2 1 1 2 r s C D C t t q 0 2     1 1 1 2 3 4 * ; o . 1 1 1 1     1 1 1 1 1 1 1 1     1 1 1 1   ",
"1 1 1 1 1 1 1 1 1 1 1 1 1 1 . . 2 1 1 2 0 n N D D k a q 2 1     1 1 1 2 3 8 = = 4 < 1 1 1 1     1 1 1 1 1 1 1 1 1 1 1 1 1 1     ",
"1 1 1 1 1 1 1 1 1 1 1 1 1 1 1 2 1 1 1 1 0 t N D D P s r 2 1 1 1 1 2 2 3 8 = $ = 4 2 1 1 1 1 1 1 1 1 1 1 1 1 1 1 1 1 1 1 1 1 1 1 ",
"1 1 1 1 1 1   1 1 1 @ 1 1 1 @ 1 @ 1 1 1 2 q e f N N n t r 0 2 1 2 5 6 9 $ $ $ 9 3 2 1 1 1 1 1 1 1 1 1 1 1 1   1 1 1 1 1 1 1 1 1 ",
"1 1 1 1     1 1 1   1 1 1 1 1 1 1 1 1 1 . . 0 r y r n n t q 0 2 w u - % & $ $ 8 <   1 1 1 1 1 1 1 1 1 1     1 1 1   1 1 1 1 1 1 ",
"    1 1 1 1 1 1 1 1 1   1 1 1   . . 2 2 1 1 1 2 0 r t 2 B v r 2 r : z & & $ = 3 2 1 1   1 1 1       1 1 1 1 1 1 1 1 1   1 1 1   ",
"  1 1 1 1 1 1 1     1 1   1 1   . 2 # 2 2 @ 1 1   . 0 q @ r t t S x , z : i 4 2 .   1 1   1 1     1 1 1 1 1 1 1     1 1   1 1   ",
"1     1 1   1     1 1         1 1 . . 2 2 . 1     1 1 . O 1 r P G c c , g 5 5 .   1 1         1 1     1 1   1     1 1         1 ",
"1   1     1 1     1           1 1 . 2 . . 2 1     1     . @ V P H J c G h s r + . 1           1 1   1     1 1     1           1 ",
"    1     1 1 1 1           1 1     2 . # 2 2 1 1       . + y P F H L K F P f t 0 .         1 1     1     1 1 1 1           1 1 ",
"    1 1 1 1 1             1 1       1 2 2 2 1             0 q e d Y R Q Q R Y P 7 +       1 1       1 1 1 1 1             1 1   ",
"  1 1 1   1 1   1         1 1     1 1 1 . 1 1   1         1 2 + r l E { ) ) R Y f 2 O     1 1     1 1 1   1 1   1         1 1   ",
"1 1 1 1   1     1     1 1 1 1 1 1 1 1 1   1     1     1 1 1 1 0 y l ^ ` } ' _ R U t @ 2 1 1 1 1 1 1 1 1   1     1     1 1 1 1 1 ",
"1 1 1 1 1       1 1 1 1 1 1 1 1 1 1 1 1 1       1 1 1 1 1 1 0 r f T / [ O...] _ R P t 0 1 1 1 1 1 1 1 1 1       1 1 1 1 1 1 1 1 ",
"1 1 1 1       1 1 1 1     1 1 1 1 1 1 1       1 1 1 1     0 r f T ^ ] O.@.O.O.] ! U d +   1 1 1 1 1 1 1       1 1 1 1     1 1 1 ",
"1   1 1   1 1 1 1 1   1 1 1 1 1 1   1 1   1 1 1 1 1   2 0 t f T ^ ] O.@.@.@.@...` E d r 1 1 1 1 1   1 1   1 1 1 1 1   1 1 1 1 1 ",
"  1 1 1 1 1 1 1 1     1 1 1 1     1 1 1 1 1 1 1 1   . 0 r a P E /  .o.+.+.+.+.o.( ~ A t 1 1 1     1 1 1 1 1 1 1 1     1 1 1 1   ",
"1 1 1 1 1 1 1 1 1 1 1 1 1 1     1 1 1 1 1 1 1 @ 1 1 2 0 v B P ~ | | X.X.X.X.X.| | ~ V r 1 1     1 1 1 1 1 1 1 1 1 1 1 1 1 1     ",
"1 1 1 1 1 1 1 1 1 1 1 1 1 1 1 1 1 1 1 1 1 1 1 1 1 1 1 1 1 1 1 1 1 1 1 1 1 1 1 1 1 1 1 1 1 1 1 1 1 1 1 1 1 1 1 1 1 1 1 1 1 1 1 1 ",
"1 1 1 1 1 1   1 1 1 1 1 1 1 1 1 1 1 1 1 1 1   1 1 1 1 1 1 1 1 1 1 1 1 1 1 1   1 1 1 1 1 1 1 1 1 1 1 1 1 1 1   1 1 1 1 1 1 1 1 1 ",
"1 1 1 1     1 1 1   1 1 1 1 1 1 1 1 1 1     1 1 1   1 1 1 1 1 1 1 1 1 1     1 1 1   1 1 1 1 1 1 1 1 1 1     1 1 1   1 1 1 1 1 1 ",
"    1 1 1 1 1 1 1 1 1   1 1 1       1 1 1 1 1 1 1 1 1   1 1 1       1 1 1 1 1 1 1 1 1   1 1 1       1 1 1 1 1 1 1 1 1   1 1 1   ",
"  1 1 1 1 1 1 1     1 1   1 1     1 1 1 1 1 1 1     1 1   1 1     1 1 1 1 1 1 1     1 1   1 1     1 1 1 1 1 1 1     1 1   1 1   ",
"1     1 1   1     1 1         1 1     1 1   1     1 1         1 1     1 1   1     1 1         1 1     1 1   1     1 1         1 ",
"1   1     1 1     1           1 1   1     1 1     1           1 1   1     1 1     1           1 1   1     1 1     1           1 ",
"    1     1 1 1 1           1 1     1     1 1 1 1           1 1     1     1 1 1 1           1 1     1     1 1 1 1           1 1 ",
"    1 1 1 1 1             1 1       1 1 1 1 1             1 1       1 1 1 1 1             1 1       1 1 1 1 1             1 1   ",
"  1 1 1   1 1   1         1 1     1 1 1   1 1   1         1 1     1 1 1   1 1   1         1 1     1 1 1   1 1   1         1 1   ",
"1 1 1 1   1     1     1 1 1 1 1 1 1 1 1   1     1     1 1 1 1 1 1 1 1 1   1     1     1 1 1 1 1 1 1 1 1   1     1     1 1 1 1 1 ",
"1 1 1 1 1       1 1 1 1 1 1 1 1 1 1 1 1 1       1 1 1 1 1 1 1 1 1 1 1 1 1       1 1 1 1 1 1 1 1 1 1 1 1 1       1 1 1 1 1 1 1 1 ",
"1 1 1 1       1 1 1 1     1 1 1 1 1 1 1       1 1 1 1     1 1 1 1 1 1 1       1 1 1 1     1 1 1 1 1 1 1       1 1 1 1     1 1 1 ",
"1   1 1   1 1 1 1 1   1 1 1 1 1 1   1 1   1 1 1 1 1   1 1 1 1 1 1   1 1   1 1 1 1 1   1 1 1 1 1 1   1 1   1 1 1 1 1   1 1 1 1 1 ",
"  1 1 1 1 1 1 1 1     1 1 1 1     1 1 1 1 1 1 1 1     1 1 1 1     1 1 1 1 1 1 1 1     1 1 1 1     1 1 1 1 1 1 1 1     1 1 1 1   ",
"1 1 1 1 1 1 1 1 1 1 1 1 1 1     1 1 1 1 @ @ @ @ @ @ @ @ @ @     1 1 1 1 1 1 1 1 1 1 1 1 1 1     1 1 1 1 1 1 1 1 1 1 1 1 1 1     ",
"1 1 1 1 1 1 1 1 1 1 1 1 1 1 1 1 1 1 1 1 @ @ @ @ @ @ @ @ @ @ 1 1 1 1 1 1 1 1 1 1 1 1 1 1 1 1 1 1 1 1 1 1 1 1 1 1 1 1 1 1 1 1 1 1 ",
"1 1 1 1 1 1   1 1 1 1 1 1 1 1 1 1 1 1 1 1 @   @ @ @ @ @ @ @ 1 1 1 1 1 1 1 1   1 1 1 1 1 1 1 1 1 1 1 1 1 1 1   1 1 1 1 1 1 1 1 1 "
};
