/* XPM */
static char *_a0df6d8d11e44e9a2e654dc1dae4804iNc1Qnnm3HJDaQrX[] = {
/* columns rows colors chars-per-pixel */
"64 64 199 2 ",
"   c #4B1400",
".  c #4C2308",
"X  c #512705",
"o  c #56360D",
"O  c #4E2B16",
"+  c #522D16",
"@  c #512E1B",
"#  c #4F301F",
"$  c #54321C",
"%  c #583618",
"&  c #4F3222",
"*  c #533423",
"=  c #593A26",
"-  c #543B2C",
";  c #5B3D2B",
":  c #563E31",
">  c #613C25",
",  c #57412E",
"<  c #5F412E",
"1  c #5B5223",
"2  c #59592A",
"3  c #554133",
"4  c #5B4334",
"5  c #5F4932",
"6  c #5B4639",
"7  c #5C4A3B",
"8  c #5F503B",
"9  c #614428",
"0  c #635627",
"q  c #64552A",
"w  c #665B2C",
"e  c #624431",
"r  c #644936",
"t  c #664A39",
"y  c #644C3B",
"u  c #64513F",
"i  c #6A563E",
"p  c #5B6A35",
"a  c #5B7232",
"s  c #69682D",
"d  c #6A6B37",
"f  c #6B7537",
"g  c #5D4D41",
"h  c #5E5245",
"j  c #5F5549",
"k  c #634E42",
"l  c #635344",
"z  c #695444",
"x  c #635649",
"c  c #645A4D",
"v  c #685848",
"b  c #6A5B4C",
"n  c #725A48",
"m  c #655D53",
"M  c #6B5E52",
"N  c #6D604F",
"B  c #676055",
"V  c #6B6155",
"C  c #6B645A",
"Z  c #6E685D",
"A  c #736455",
"S  c #726759",
"D  c #786759",
"F  c #746A5D",
"G  c #796B5D",
"H  c #747352",
"J  c #6F6D63",
"K  c #746D62",
"L  c #767165",
"P  c #7A7365",
"I  c #777368",
"U  c #7A7669",
"Y  c #77786F",
"T  c #7D796D",
"R  c #767B73",
"E  c #7E7C71",
"W  c #717E7A",
"Q  c #846A53",
"!  c #8B745C",
"~  c #957B5D",
"^  c #827967",
"/  c #8B7A65",
"(  c #817768",
")  c #827B6D",
"_  c #897D6B",
"`  c #827E72",
"'  c #788A3F",
"]  c #658F42",
"[  c #768C40",
"{  c #788E42",
"}  c #669344",
"|  c #6A9447",
" . c #6B9649",
".. c #779446",
"X. c #7E9947",
"o. c #7F9C48",
"O. c #769B51",
"+. c #7B9E56",
"@. c #7D817A",
"#. c #809D49",
"$. c #84A04D",
"%. c #8BA354",
"&. c #88A35A",
"*. c #94A85D",
"=. c #8E816D",
"-. c #97836C",
";. c #858275",
":. c #8A8476",
">. c #868479",
",. c #89867A",
"<. c #8C897D",
"1. c #998A75",
"2. c #928C7C",
"3. c #9A917D",
"4. c #A38E74",
"5. c #A9967C",
"6. c #88A561",
"7. c #9AAB64",
"8. c #90A869",
"9. c #98AD6F",
"0. c #9CAE72",
"q. c #9DB074",
"w. c #A1AE6B",
"e. c #A5B26F",
"r. c #A7B478",
"t. c #B0B97B",
"y. c #68878B",
"u. c #758786",
"i. c #7E8D8A",
"p. c #6B9298",
"a. c #6B949B",
"s. c #7D9392",
"d. c #77979A",
"f. c #6EA4AD",
"g. c #78A4AB",
"h. c #6AA7B2",
"j. c #6DA9B5",
"k. c #6CADB9",
"l. c #73ACB5",
"z. c #6BB1BF",
"x. c #7AB4BD",
"c. c #7DB8BF",
"v. c #6AB4C3",
"b. c #6EB9C6",
"n. c #6ABCCD",
"m. c #77BBC8",
"M. c #6BBFD0",
"N. c #7CC4CD",
"B. c #6BC1D3",
"V. c #6FCBDD",
"C. c #74C5D5",
"Z. c #76C5D5",
"A. c #6FCDE1",
"S. c #6BD1E6",
"D. c #858A82",
"F. c #8D8C81",
"G. c #918E83",
"H. c #86918B",
"J. c #8A928B",
"K. c #939185",
"L. c #9C9683",
"P. c #959489",
"I. c #9A9989",
"U. c #9D9A8A",
"Y. c #879894",
"T. c #8C9C9A",
"R. c #9A9C90",
"E. c #A59B85",
"W. c #A49A86",
"Q. c #95A299",
"!. c #AAA28C",
"~. c #AEBA84",
"^. c #B6BC81",
"/. c #BDBF87",
"(. c #AAA291",
"). c #A2AB9D",
"_. c #B4AB94",
"`. c #B6AC98",
"'. c #829FA2",
"]. c #84A1A2",
"[. c #86A7A9",
"{. c #8EBBBB",
"}. c #AEB2A3",
"|. c #C3B499",
" X c #C6BBA2",
".X c #BCC5B2",
"XX c #C5C592",
"oX c #E9D9B7",
"OX c #EDDEBD",
"+X c #EEE0BF",
"@X c #EFE1C1",
"#X c #F2E5C5",
"$X c #F2E6C8",
"%X c #F5EBCB",
"&X c #F7EDCE",
"*X c #F8EECF",
"=X c #F7EED0",
"-X c #F9EFD0",
";X c #F9F0D2",
/* pixels */
"#.#.#.#.} } #.#.#.} #.#.#.#.#.#.#.%.w.OX$X%X&X%X$X0.*.%.#.#.#.#.#.#.#.#.} } #.#.#.} #.#.#.#.#.#.#.#.#.#.} } #.#.#.} #.#.#.#.#.#.",
"} } #.#.#.#.#.#.#.#.#.} #.#.#.}  .+.OX$X$X%X%X$X^.7.%.} #.#.#.} } } #.#.#.#.#.#.#.#.#.} #.#.#.} } } #.#.#.#.#.#.#.#.#.} #.#.#.} ",
"} #.#.#.#.#.#.#.} } #.#.} #.#.} | %.e.$X@X-X#X%Xr.6.%.#.} #.#.} } #.#.#.#.#.#.#.} } #.#.} #.#.} } #.#.#.#.#.#.#.} } #.#.} #.#.} ",
"#.} } #.#.} #.} } #.#.} } } } #.#. .6.^.%XOX-X&X$Xr.7.O. .} } #.#.} } #.#.} #.} } #.#.} } } } #.#.} } #.#.} #.} } #.#.} } } } #.",
"#.} #.} } #.#.} } #.} } } } } #.#.} *.9.$X&X;X-X%X$Xr.8.&.O. .#.#.} #.} } #.#.} } #.} } } } } #.#.} #.} } #.#.} } #.} } } } } #.",
"} } #.} } #.#.#.#.} } } } } #.#.} } %.8.~.%X&X-X*X&X%X$Xq.8.*.%. .} #.} } #.#.#.#.} } } } } #.#.} } #.} } #.#.#.#.} } } } } #.#.",
"} } #.#.#.#.#.} } } } } } #.#.} }  .*.e.+XOXOX&X-X-X&X%X$X$Xr.8.&.O.$.#.#.#.#.} } } } } } #.#.} } } #.#.#.#.#.} } } } } } #.#.} ",
"} #.#.#.} #.#.} #.} } } } #.#.} } %.7.+X#X#XXX%X&X;X;X-X&X%X$X$X0.7.%.$.} #.#.} #.} } } } #.#.} } #.#.#.} #.#.} #.} } } } #.#.} ",
"#.#.#.#.} #.} } #.} } #.#.#.#.#.#.%.7.+X#X/.~.$X%X*X;X;X;X-X&X%X$X#X7.%.} #.} } #.} } #.#.#.#.#.#.#.#.#.} #.} } #.} } #.#.#.#.#.",
"#.#.#.#.#.} } } #.#.#.#.#.#.#.#.#.$.*.e.@X@Xq.r.$X&X-X;X;X;X;X-X&X$X5.=.G n } } #.#.#.#.#.#.#.#.#.#.#.#.#.} } } #.#.#.#.#.#.#.#.",
"#.#.#.#.} } } #.#.#.#.} } #.#.#.#.#.%.7.8.OXq.t.^.$X&X;X;X;X;X;X-X&X$X_.W.<.A #.#.#.#.} } #.#.#.#.#.#.#.} } } #.#.#.#.} } #.#.#.",
"#.} #.#.} #.#.#.#.#.} #.#.#.#.#.#.} #.%.6.OXOXt.^.$X%X-X;X;X;X;X;X*X&X%X#X!.! $.#.#.} #.#.#.#.#.#.} #.#.} #.#.#.#.#.} #.#.#.#.#.",
"} #.#.#.#.#.#.#.#.} } #.#.#.#.} } #.#.$.*.w.OXOX5.|.%X*X;X;X;X;X;X;X-X&X%X#X1.> ; ; ] o.#.#.#.} } #.#.#.#.#.#.#.#.} } #.#.#.#.} ",
"#.#.#.#.#.#.#.#.#.#.#.#.#.#.} } #.#.s d ( :.!.OX$X|.&X*X;X;X;X;X;X;X;X;X&X$X5._ ;.;.F K s s } } #.#.#.#.#.#.#.#.#.#.#.#.#.#.} } ",
"#.#.#.#.#.#.#.#.#.#.#.#.#.#.#.X.X.i >.>.;.) Q -.OX%X&X-X;X;X;X;X;X;X;X;X-X%X$X! n e T ` >.<.9 #.#.#.#.#.#.#.#.#.#.#.#.#.#.#.#.#.",
"#.#.#.#.#.#.} #.#.#.#.#.#.#.0 P ` V <.l A U K.!.oX%X&X-X;X;X;X;X;X-X*X&X&X%X$X`.W.G.T S z F.% w w o.#.#.#.#.} #.#.#.#.#.#.#.#.#.",
"#.#.#.#.} } #.#.#.} #.#.' z F.>.;.<.; U ` ;.:.L._.oX%X-X;X;X;X;X-X&X%X%X$X$X$X$X(.L.>.,.<.y <.U T z z { } } #.#.#.} #.#.#.#.#.#.",
"} } #.#.#.#.#.#.#.#.#.o ,.>.>.<.y ) ;.;.T :.:.2.W.#X%X*X;X;X;X;X*X%X X_._.|.$XOX@XL.>.,.,.,.;.6 ;.` ` U o #.#.#.#.#.#.} #.#.#.} ",
"} #.#.#.#.#.#.#.} } X P.,.F.F z ,.;.;.;.:.:.:.<.2.~ %X&X;X;X;X;X&X%XW.(.(.`.OXOX@XL.>.>.,.;.,.<.k M ;.;.<.  #.#.} } #.#.} #.#.} ",
"#.} } #.#.} #.} } = F.- <.M ;.;.;.;.;.:.:.>.<.,.P ! $X&X;X;X;X;X*X%X5.2.2.W.@X+X_.U.` ` T U ` ;.>.>.l >.; F.X } } #.#.} } } } #.",
"#.} #.} } #.#.} F F.;.K.+ T ;.;.;.;.;.:.G.P V c K _ $X&X;X;X;X;X*X&X$X4.W.#X#XW.2.` ;.F.` ` ` ;.;.` T . K.;.F.S } #.} } } } } #.",
"} } #.} } #.#.z ;.;.` V <.;.;.,.,.>.,.<.7 j x l % Q #X%X-X;X;X;X-X*X%X%X.X#X#X2.) L K Z K.` ` ` ` ` ` ;.M ;.;.` y } } } } } #.#.",
"} } #.#.#.#.f ) ) ` b ` ,.>.,.,.>.:.>.g j & 3 y S _ W.%X*X;X;X;X;X-X*X&X@X#X#XR.( V 7 L C <.>.` E ` ` ` T x ;.` U a } } } #.#.} ",
"} #.#.#.} #.d >.T T k <.,.,.,.F.<.F.3 6 - V C S S ) W.$X&X;X;X;X;X;X;X-XOX#X_.:.P P ` l m m F.<.,.E ` >.,.6 ` ` ,.2 } } } #.#.} ",
"#.#.#.0 1 q r r r e y x x P.P.P.,.7 3 7 c C C C S ^ 3.$X%X;X;X;X;X;X;X;X=XOX!.:.P L L P L x m <.<.<.,.l l l e y y r q w w ' #.#.",
"#.#.H K.F.<.;.;.;.E E E E l F 4 ) 3 4 c S Z S S u.Y.).$X%X;X;X;X;X;X;X;X=X%X}.Q.E L L U U A g ` M M M ,.,.<.;.,.,.,.,.,.>.G #.#.",
"#.#.F ;.;.;.;.` ` ` ` ` ` ` ;.K.: y b F F F C J h.[.).$X&X;X;X;X;X;X;X;X-X%X#X{.d.F L L U U P 7 P.<.` ` ` ;.;.;.;.;.;.;.;.G #.#.",
"#.} F ;.;.;.) ^ ` ` ` ` ` ` ` ;.- u L F y.A K W l.F.#X%X&X;X;X;X;X;X;X;X;X&X$XQ.x.u.L L U U P 6 >.` ` ` ;.;.;.;._ _ ;.;.;.G #.#.",
"} #.S ;.;.;.m.S.s.;.;.;.` ` ;.K $ l K F @.a.L R x.1.#X%X&X;X;X;X;X;X;X;X;X&X$XU.c.a.L L I U U 6 K ;.` ` ;.,.;.H.S.m.,.:.;.G #.} ",
"#.#.G >.>.D.'.x.V.^ ;.;.;.>.<.k l K K K F P p.k.m.3.#X%X&X;X;X;X;X;X;X;X;X&X$XU.N.f.L L L L L U k ;.` ` ,.,.,.Y.J.m.S._ <.G } } ",
"#.#.F >.>.D.g.J.C._ :.;.;.,.F.l l K L K L L u.v.l.K.@X$X&X;X;X;X;X;X;X;X;X&X$XI.g.u.L L L L L U k ;.;.;.,.,.,.Y.].2.C.:.<.G #.#.",
"#.#.G ,.,.,.T.[.F.,.,.,.>.;.F.k l K L L L L ) y.b.=.W.$X%X;X;X;X;X;X;X;X-X%X#XI.l.G P L L L L U k ,.,.>.,.,.,.F.].T.,.<.,.G #.#.",
"#.#.G F.,.,.,.,.,.,.,.,.,.,.,.l l L L I L L L @.h.^ 3.@X$X&X&X&X&X&X&X&X%X$XW.T.f.P L L L L L L k ,.>.,.,.,.<.<.<.<.<.<.<.G #.#.",
"} } G F.<.,.,.,.,.,.,.,.,.,.<.l l L I I T T U R j.P :.L.#X$X$X$X$X$X$X$X$X@X3.].f.P U L L L F L k ,.,.,.<.<.<.<.<.<.^ <.<.G #.} ",
"} #.G P.P.K.G.G.G.G.P P P F M S . U U T T T U R j.P U U U T T T T T T T T T T u.k.P U L L F K * K S F P U T U K.K.:.:.<.K.G #.} ",
"#.} g K L C C C C M K.F.<.>.` ` P L T T T T U R j.P U U U T T T T T T T T T T u.j.P U U U K C K T T ;.<.P z F m V C C C C k } #.",
"#.} g Z B x l x l y o K.;.;.;.` ;.P S T T T U R f.s.( @.` ) ^ ` ;.;.^ ^ ^ ^ ) d.a.P U U U S M ) T T T T <.4 b l l l l C V g } #.",
"} } g m - G.;.` P P * T ;.;.;.;.;.;.) U T T U Y j.j.v.z.B.B.B.M.n.n.n.n.v.n.a.f.p.U U U L z L ` ;.) T T E + ` ;.<.,.P.: V g #.#.",
"} } d : @ K >.` T U F l G.;.>.>.;.>.<.` u ;.T T U s.i.i.i.i.i.i.s.i.d.k.j.s.s.@.E U T y b U >.;.;.;.;.<.g A ) ;.>.<.I @ : d #.} ",
"} #.#.#.a x >.` ` T T 6 l <.>.>.>.>.>.F.<.z P ` T U U U T T T T T T T ) f.P U U T K r <.>.;.;.>.>.;.,.7 - P ` >.;.<.m a } #.#.} ",
"#.#.#.#.} + V <.` ` T T ; Z P.P.>.,.,.,.:.;.) < < ;.U U T T T T T T T T T U E < ; ` ,.,.;.>.,.,.>.F.l * P P T ,.F.x O #.#.#.#.#.",
"#.#.#.#.#.} g >.;.;.P V ; C C 7 <.,.,.,.>.;.;.:.` r F S F F F F F F F F P T l ;.<.,.,.,.,.,.,.F.<.l g 6 l S ,.>.;.- #.#.#.#.#.#.",
"#.#.o.#.} } 1 C F.t <.F.4 $ K F T <.,.,.,.:.;.;.;.;.e <.,.,.,.,.` ` ` ` A e ` ;.,.,.,.,.,.,.<.K c l 7 A U P ; G.h 2 #.} } #.#.#.",
"#.} o.#.} #.#.* 4 F.;.;.F.F.b l K ;.,.G.,.,.:.;.;.U <.,.<.<.,.:.;.;.;.;.;.G.P ;.;.,.,.,.G.,.T x 3 b U T U U ;.O * #.} #.#.#.#.#.",
"} #.#.#.#.#.#.{ 4 K F.;.>.` ` <.; F Z C P.K.;.:.,.A ,.:.:.:.:.:.;.;.;.;.;.;.A ,.,.,.K.P.x x x - T ) ) ) T ;.7 @ ..} } #.#.#.#.} ",
"#.#.#.#.#.#.#.#.' c C >.F.;.>.>.>.U 4 Z V V T ) P.A ,.,.:.,.D.H./ m._ ;.;.;.A P.) U l l c - V P U ) T ,.U 6 4 ' #.#.#.#.#.#.} } ",
"#.#.#.#.#.#.#.#.#.[ m Z Z <.,.,.<.<.U e l b b b u A <.:.,.<.<.N.A.T.:.,.:.;.G 5 b v l 7 7 F ;.P ) ) ` g 7 6 [ #.#.#.#.#.#.#.#.#.",
"#.#.#.#.#.#.} #.#.#.{ - J K U P.<.) >.;.T P 7 $ + D <.<.<.<.<.m.C.[.:.<.,.,.G + + 7 K T ,.<.) P <.Z m h # { } #.#.#.#.#.#.#.#.#.",
"#.#.#.#.} } #.#.#.} #.#.1 m Z C b ,.,.` ` ` T T ` A <.<.2.<.J.T.1.C.=.,.<.,.D S ;.;.) ;.>.<.<.,.h j 7 1 } } #.#.#.} #.#.#.#.#.#.",
"} } #.#.#.#.#.#.#.#.#.} #.X.* m x K Z K.K.K.U U U D <.<.<.<.<.<.<.<.<.,.,.,.D V T ` G.K.K.x x - c @ X.#.#.#.#.#.#.#.#.} #.#.#.} ",
"} #.#.#.#.#.#.#.} } #.#.} #.#.a p l C m m m ;.` ;.b G.F.<.,.,.;.;.;.;.,.<.<.b N ) ` l 8 7 l 3 2 a #.#.#.#.#.#.#.} } #.#.} #.#.} ",
"#.} } #.#.} #.} } #.#.} } } } #.#.} . m m m m c l 6 L C C C C C C V B B m K 6 5 l l l l l . } #.o.} } #.#.} #.} } #.#.} } } } #.",
"#.} #.} } #.#.} } #.} } } } } #.#.} #.a a f 6 3 4 7 C C C B m m B m B m m m 6 * - , a a a } } #.#.} #.} } #.#.} } #.} } } } } #.",
"} } #.} } #.#.#.#.} } } } } #.#.} } #.} } #.#.#.#.6 C m l c m m m m m m m m 6 #.#.} } } } } #.#.} } #.} } #.#.#.#.} } } } } #.#.",
"} } #.#.#.#.#.} } } } } } #.#.} } } #.#.#.#.#.} } p - = - - - - - - - - - - f } } } } } } #.#.} } } #.#.#.#.#.} } } } } } #.#.} ",
"} #.#.#.} #.#.} #.} } } } #.#.} } #.#.#.} #.#.} #.} } } } #.#.} } #.#.#.} #.#.} #.} } } } #.#.} } #.#.#.} #.#.} #.} } } } #.#.} ",
"#.#.#.#.} #.} } #.} } #.#.#.#.#.#.#.#.#.} #.} } #.} } #.#.#.#.#.#.#.#.#.} #.} } #.} } #.#.#.#.#.#.#.#.#.} #.} } #.} } #.#.#.#.#.",
"#.#.#.#.#.} } } #.#.#.#.#.#.#.#.#.#.#.#.#.} } } #.#.#.#.#.#.#.#.#.#.#.#.#.} } } #.#.#.#.#.#.#.#.#.#.#.#.#.} } } #.#.#.#.#.#.#.#.",
"#.#.#.#.} } } #.#.#.#.} } #.#.#.#.#.#.#.} } } #.#.#.#.} } #.#.#.#.#.#.#.} } } #.#.#.#.} } #.#.#.#.#.#.#.} } } #.#.#.#.} } #.#.#.",
"#.} #.#.} #.#.#.#.#.} #.#.#.#.#.#.} #.#.} #.#.#.#.#.} #.#.#.#.#.#.} #.#.} #.#.#.#.#.} #.#.#.#.#.#.} #.#.} #.#.#.#.#.} #.#.#.#.#.",
"} #.#.#.#.#.#.#.#.} } #.#.#.#.} } #.#.#.#.#.#.#.#.} } #.#.#.#.} } #.#.#.#.#.#.#.#.} } #.#.#.#.} } #.#.#.#.#.#.#.#.} } #.#.#.#.} ",
"#.#.#.#.#.#.#.#.#.#.#.#.#.#.} } #.#.#.#.o.o.o.o.o.o.o.o.o.o.} } #.#.#.#.#.#.#.#.#.#.#.#.#.#.} } #.#.#.#.#.#.#.#.#.#.#.#.#.#.} } ",
"#.#.#.#.#.#.#.#.#.#.#.#.#.#.#.#.#.#.#.#.o.o.o.o.o.o.o.o.o.o.#.#.#.#.#.#.#.#.#.#.#.#.#.#.#.#.#.#.#.#.#.#.#.#.#.#.#.#.#.#.#.#.#.#.",
"#.#.#.#.#.#.} #.#.#.#.#.#.#.#.#.#.#.#.#.#.o.} o.o.o.o.o.o.o.#.#.#.#.#.#.#.#.} #.#.#.#.#.#.#.#.#.#.#.#.#.#.#.} #.#.#.#.#.#.#.#.#."
};
