/* XPM */
static char *e54c2bc419774929a96618dd0f4239b3Ng2OIwdbwtjqdoQ9[] = {
/* columns rows colors chars-per-pixel */
"64 64 10 1 ",
"  c black",
". c #E32016",
"X c #659243",
"o c #669344",
"O c #7F9B48",
"+ c #7F9C48",
"@ c #809D49",
"# c #F2D14C",
"$ c #F4D34D",
"% c white",
/* pixels */
"@@@@oo@@@o@@@@@@@@@@oo@@@o@@@@@@@@@@oo@@@o@@@@@@@@@@oo@@@o@@@@@@",
"oo@@@@@@@@@o@@@ooo@@@@@@@@@o@@@ooo@@@@@@@@@o@@@ooo@@@@@@@@@o@@@o",
"o@@@@@@@oo@@o@@oo@@@@@@@oo@@o@@oo@@@@@@@oo@@o@@oo@@@@@@@oo@@o@@o",
"@oo@@o@oo@@oooo@@oo@@o@oo@@oooo@@oo@@o@oo@@oooo@@oo@@o@oo@@oooo@",
"@o@oo@@oo@ooooo@@o@oo@@oo@ooooo@@o@oo@@oo@ooooo@@o@oo@@oo@ooooo@",
"oo@oo@@@@ooooo@@oo@oo@@@@ooooo@@oo@oo@@@@ooooo@@oo@oo@@@@ooooo@@",
"oo@@@@@oooooo@@ooo@@@@@oooooo@@ooo@@@@@oooooo@@ooo@@@@@oooooo@@o",
"o@@@o@@o@oooo@@oo@@@o@@o@oooo@@oo@@@o@@o@oooo@@oo@@@o@@o@oooo@@o",
"@@@@o@oo@oo@@@@@@@@@o@oo@oo@@@@@@@@@o@oo@oo@@@@@@@@@o@oo@oo@@@@@",
"@@@@@ooo@@@@@@@@@@@@@ooo@@@@@@@@@@@@@ooo@@@@@@@@@@@@@ooo@@@@@@@@",
"@@@@ooo@@@@oo@@@@@@@o.o@@@@oo@@@@@@@ooo@@@@oo@@@@@@@ooo@@@@oo@@@",
"@o@@o@@@@@o@@@@@@o@@. .@@@o@@@@@@o@@o@@@@@o@@@@@@o@@o@@@@@o@@@@@",
"o@@@@@@@@oo@@@@oo@@@   @@oo@@@@oo@@@@@@@@oo@@@@oo@@@@@@@@oo@@@@o",
"@@@@@@@@@@@@@@oo@@@.   @@@@@@@oo@@@@@@@@@@@@@@oo@@@@@@@@@@@@@@oo",
"@@@@@@@@@@@@@@@@@@@  .$.@@@@@@@@@@@@@@@..  .@@@@@@@@@@@@@@@@@@@@",
"@@@@@@o@@@@@@@@@@@@ %$$ @@@@@@@@@@@@.  %   .@@@@@@@@@@o@@@@@@@@@",
"@@@@oo@@@o@@@@@@@@..%$$ @o@@@@@@@@. %%%$   @@@@@@@@@oo@@@o@@@@@@",
"oo@@@@@@@@@o@@@ooo %%$$$     @@o. %%%$$$  @o@@@ooo@@@@@@@@@o@@@o",
"o@@@@@@@oo@@o@@oo@ %$$..%%%$$   %%%$$$$. o@@o@@oo@@@@@@@oo@@o@@o",
"@oo@@o@oo@@oooo@@o $.%%%%%$$$$$$$$$$$$$ o@@oo  @@oo@@o@oo@@oooo@",
"@o@oo@@oo@ooooo@@o.%%%%%$$$$$$$$$$$$$$ oo@oo %% @o@oo@@oo@ooooo@",
"oo@oo@@@@ooooo@@o.$%%%$$$$$$$$$$$$$$$ @@@ooo %%%  @oo@@@@ooooo@@",
"oo@@@@@oooooo@@oo .$$$$$$$$  $$$$$$$ @@oooo %$%$%$ @@@@oooooo@@o",
"o@@@o@@o@oooo@@o % $$$$$$$ %  $$$$  o@@o@oo %%$%$%$ o@@o@oooo@@o",
"@@@@o@oo@oo@@@@@   $$$$$$$    $$$$$ o@oo@o %%$%$%$$ o@oo@oo@@@@@",
"@@@@@ooo@@@@@@@.$ $$ $$$$$$  $$$$$$.@ooo@@ %$$$$$$$.@ooo@@@@@@@@",
"@@@@ooo@@@@oo@@ $$$$$$$$$$$$$$..$$$$.oo@@ $$$$$$$$ @ooo@@@@oo@@@",
"@o@@o@@@@@o@@@@ .$$ $  $$ $$$....$$$ @@@@ $$$$$$$ @@o@@@@@o@@@@@",
"o@@@@@@@@oo@@@@ .$$$ ..  $$$$....$$$$.@@ $$$$$$$ @@@@@@@@oo@@@@o",
"@@@@@@@@@@@@@@o  $$$$.. $$$$$$.. $$$$ @@ $$$$$$ @@@@@@@@@@@@@@oo",
"@@@@@@@@@@@@@ .$ $$$$  $$$$$$$$ % $$$. @ $$$$$ @@@@@@@@@@@@@@@@@",
"@@@@@@o@@@@@.%%$$.$$$$$$$$$$$  %%% $.. @@ $$$$  @@@@@@o@@@@@@@@@",
"@@@@oo@@@o@@ %$$$$ $$$$$$$$$$$$$$$ $$. @@o $$$$$ @@@oo@@@o@@@@@@",
"oo@@@@@@@@@o@ $$$$$$$$$$$$$$$$$$$ $$$$$ @@ .$$$  o@@@@@@@@@o@@@o",
"o@@@@@@@oo@@o@ $$$$$$$$$$$$$$$$$$$$$$$$ o $$$$ oo@@@@@@@oo@@o@@o",
"@oo@@o@oo@@oooo. $$$$$$$$$$$$$$...$$$..  $$$  o@@oo@@o@oo@@oooo@",
"@o@oo@@oo@ooooo@@.$$$$$$$$$$ $ %%%.$... o $$ oo@@o@oo@@oo@ooooo@",
"oo@oo@@@@ooooo@@o. $$$$$$$$ % % %$$$$..   $$$ @@oo@oo@@@@ooooo@@",
"oo@@@@@oooooo@@ooo $$$$$$$$ $$$ $$$$$$$ ...  @@ooo@@@@@oooooo@@o",
"o@@@o@@o@oooo@@oo@ $$$##### #### $$$$$ ..  oo@@oo@@@o@@o@oooo@@o",
"@@@@o@oo@oo@@@@@@@.$$$######.### $$$$$   oo@@@@@@@@@o@oo@oo@@@@@",
"@@@@@ooo@@@@@@@@@@@ %$###### ### $$$$  o@@@@@@@@@@@@@ooo@@@@@@@@",
"@@@@ooo@@@@oo@@@@@@ %%%##### ## $$$$ oo@@@@oo@@@@@@@ooo@@@@oo@@@",
"@o@@o@@@@@o@@@@@@o@@ %%%#####  #$$$ o@@@@@o@@@@@@o@@o@@@@@o@@@@@",
"o@@@@@@@@oo@@@@oo@@@@  %%#######  .@@@@@@oo@@@@oo@@@@@@@@oo@@@@o",
"@@@@@@@@@@@@@@oo@@@@@@+  %%###  @@@@@@@@@@@@@@oo@@@@@@@@@@@@@@oo",
"@@@@@@@@@@@@@@@@@@@@@@+++  #.  O@@@@@@@@@@@@@@@@@@@@@@@@@@@@@@@@",
"@@@@@@o@@@@@@@@@@@@@@@X+++ ### O@@@@@@o@@@@@@@@@@@@@@@o@@@@@@@@@",
"@@@@oo@@@o@@@@@@@@@@oo@++X % % +@@@@oo@@@o@@@@@@@@@@oo@@@o@@@@@@",
"oo@@@@@@@@@o@@@ooo@@@@@@@@@ @ @ooo@@@@@@@@@o@@@ooo@@@@@@@@@o@@@o",
"o@@@@@@@oo@@o@@oo@@@@@@@oo@@o@@oo@@@@@@@oo@@o@@oo@@@@@@@oo@@o@@o",
"@oo@@o@oo@@oooo@@oo@@o@oo@@oooo@@oo@@o@oo@@oooo@@oo@@o@oo@@oooo@",
"@o@oo@@oo@ooooo@@o@oo@@oo@ooooo@@o@oo@@oo@ooooo@@o@oo@@oo@ooooo@",
"oo@oo@@@@ooooo@@oo@oo@@@@ooooo@@oo@oo@@@@ooooo@@oo@oo@@@@ooooo@@",
"oo@@@@@oooooo@@ooo@@@@@oooooo@@ooo@@@@@oooooo@@ooo@@@@@oooooo@@o",
"o@@@o@@o@oooo@@oo@@@o@@o@oooo@@oo@@@o@@o@oooo@@oo@@@o@@o@oooo@@o",
"@@@@o@oo@oo@@@@@@@@@o@oo@oo@@@@@@@@@o@oo@oo@@@@@@@@@o@oo@oo@@@@@",
"@@@@@ooo@@@@@@@@@@@@@ooo@@@@@@@@@@@@@ooo@@@@@@@@@@@@@ooo@@@@@@@@",
"@@@@ooo@@@@oo@@@@@@@ooo@@@@oo@@@@@@@ooo@@@@oo@@@@@@@ooo@@@@oo@@@",
"@o@@o@@@@@o@@@@@@o@@o@@@@@o@@@@@@o@@o@@@@@o@@@@@@o@@o@@@@@o@@@@@",
"o@@@@@@@@oo@@@@oo@@@@@@@@oo@@@@oo@@@@@@@@oo@@@@oo@@@@@@@@oo@@@@o",
"@@@@@@@@@@@@@@oo@@@@+++++++++Ooo@@@@@@@@@@@@@@oo@@@@@@@@@@@@@@oo",
"@@@@@@@@@@@@@@@@@@@@+++++++++O@@@@@@@@@@@@@@@@@@@@@@@@@@@@@@@@@@",
"@@@@@@o@@@@@@@@@@@@@@+X+++++++@@@@@@@@o@@@@@@@@@@@@@@@o@@@@@@@@@"
};
