/* XPM */
static char *_81679c0620c42d5f089676653b06d481sNTb9h8h3WaRg9Y[] = {
/* columns rows colors chars-per-pixel */
"64 64 134 2 ",
"   c black",
".  c #490D00",
"X  c #4E260C",
"o  c #552A07",
"O  c #4B2712",
"+  c #4D2A15",
"@  c #4E2E1A",
"#  c #512D16",
"$  c #5A2F15",
"%  c #502E1C",
"&  c #53311C",
"*  c #59351F",
"=  c #533625",
"-  c #5A3720",
";  c #563927",
":  c #583A23",
">  c #543B2C",
",  c #5C3E2C",
"<  c #553E31",
"1  c #53471B",
"2  c #574A1D",
"3  c #594C1E",
"4  c #574D20",
"5  c #594F20",
"6  c #5B432D",
"7  c #554D2A",
"8  c #4F5424",
"9  c #545422",
"0  c #5C5124",
"q  c #5F5B26",
"w  c #574432",
"e  c #5B4333",
"r  c #5B463A",
"t  c #5C4B3D",
"y  c #62422B",
"u  c #635620",
"i  c #605328",
"p  c #614634",
"a  c #624936",
"s  c #624D3D",
"d  c #62513B",
"f  c #5B7232",
"g  c #5E7D38",
"h  c #63672D",
"j  c #63692D",
"k  c #656734",
"l  c #666B34",
"z  c #61673B",
"x  c #607735",
"c  c #6A7534",
"v  c #6D7936",
"b  c #6E7D39",
"n  c #717737",
"m  c #5D4D41",
"M  c #5E5145",
"N  c #5F5549",
"B  c #634E42",
"V  c #635344",
"C  c #6A5344",
"Z  c #665845",
"A  c #685947",
"S  c #645649",
"D  c #6A5648",
"F  c #645A4D",
"G  c #6B5C4C",
"H  c #715E4E",
"J  c #655E53",
"K  c #6D5E51",
"L  c #6E6442",
"P  c #676C41",
"I  c #6D604D",
"U  c #676156",
"Y  c #6B6256",
"T  c #676158",
"R  c #6C655B",
"E  c #6E685E",
"W  c #746455",
"Q  c #736659",
"!  c #746B5D",
"~  c #796B5D",
"^  c #746D62",
"/  c #796F62",
"(  c #767165",
")  c #7A7265",
"_  c #777369",
"`  c #7B766A",
"'  c #7E7A6D",
"]  c #7E7B70",
"[  c #E32016",
"{  c #807666",
"}  c #80776A",
"|  c #817B6E",
" . c #827E72",
".. c #62843D",
"X. c #65893F",
"o. c #72853D",
"O. c #75893F",
"+. c #648D41",
"@. c #778D41",
"#. c #788E41",
"$. c #669344",
"%. c #7C9545",
"&. c #7E9947",
"*. c #7F9C48",
"=. c #809D49",
"-. c #858275",
";. c #898477",
":. c #868479",
">. c #888578",
",. c #89847A",
"<. c #8B877A",
"1. c #8A877C",
"2. c #8B887D",
"3. c #8C897D",
"4. c #8C8A7E",
"5. c #8F8C7F",
"6. c #908C7E",
"7. c #F3D24D",
"8. c #F4D34D",
"9. c #8B8B80",
"0. c #8E8B82",
"q. c #8E8C81",
"w. c #908E83",
"e. c #918F83",
"r. c #918F85",
"t. c #939084",
"y. c #949286",
"u. c #939288",
"i. c #959288",
"p. c #96948A",
"a. c #98968A",
"s. c #98978D",
"d. c #9C998E",
"f. c white",
/* pixels */
"=.=.=.=.$.$.=.=.=.$.=.=.=.=.=.=.=.=.=.=.$.$.=.=.=.$.=.=.=.=.=.=.=.=.=.=.$.$.=.=.=.$.=.=.=.=.=.=.=.=.=.=.$.$.=.=.=.$.=.=.=.=.=.=.",
"$.$.=.=.=.=.=.=.=.=.=.$.=.=.=.$.$.$.=.=.=.=.=.=.=.=.=.$.=.=.=.$.$.$.=.=.=.=.=.=.=.=.=.$.=.=.=.$.$.$.=.=.=.=.=.=.=.=.=.$.=.=.=.$.",
"$.=.=.=.=.=.=.=.$.$.=.=.$.=.=.$.$.=.=.=.=.=.=.=.$.$.=.=.$.=.=.$.$.=.=.=.=.=.=.=.[   [ =.$.=.=.$.$.=.=.=.=.=.=.=.$.$.=.=.$.=.=.$.",
"=.$.$.=.=.$.=.$.$.=.=.$.$.$.$.=.=.$.$.=.=.$.=.$.$.=.=.$.$.$.$.=.=.$.$.=.=.$.[         $.$.$.$.=.=.$.$.=.=.$.=.$.$.=.=.$.$.$.$.=.",
"=.$.=.$.$.=.=.$.$.=.$.$.$.$.$.=.=.[ =.$.$.=.=.$.$.=.$.$.$.$.$.=.=.$.=.$.[   f.f.    [ $.$.$.$.=.=.$.=.$.$.=.=.$.$.=.$.$.$.$.$.=.",
"$.$.=.$.$.=.=.=.=.$.$.$.$.$.=.=.[     $.$.=.=.=.=.$.$.$.$.$.=.=.$.$.=.  f.f.f.8.    $.$.$.$.=.=.$.$.=.$.$.=.=.=.=.$.$.$.$.$.=.=.",
"$.$.=.=.=.=.=.$.$.$.$.$.$.=.=.$.        =.=.=.$.$.$.$.$.$.=.=.$.$.    f.f.8.8.8.  [ $.$.$.=.=.$.$.$.=.=.=.=.=.$.$.$.$.$.$.=.=.$.",
"$.=.=.=.$.=.=.$.=.$.$.$.$.=.=.$.      8.  =.=.$.=.$.$.[           f.f.f.8.8.8.8.  $.$.$.$.=.=.$.$.=.=.=.$.=.=.$.=.$.$.$.$.=.=.$.",
"=.=.=.=.$.=.$.$.=.$.$.=.=.=.=.=.[   8.8.8.  $.$.      f.f.8.8.  8.f.f.8.8.8.8.  =.$.$.=.=.=.=.=.    =.=.$.=.$.$.=.$.$.=.=.=.=.=.",
"=.=.=.=.=.$.$.$.=.=.=.=.=.=.=.=.=.  8.8.8.8.[   f.f.f.f.8.8.8.8.8.8.8.8.8.8.8.[ =.=.=.=.=.=.=.  f.f.  =.=.$.$.$.=.=.=.=.=.=.=.=.",
"=.=.=.=.$.$.$.=.=.=.=.$.$.=.=.=.=.  8.8.8.[ f.f.f.f.f.8.8.8.8.8.8.8.8.8.8.8.  =.=.=.=.$.$.=.  f.f.f.  =.$.$.$.=.=.=.=.$.$.=.=.=.",
"=.$.=.=.$.=.=.=.=.=.$.=.=.=.=.=.=.$.  8.[ 8.f.f.f.8.8.8.8.8.8.8.8.8.8.8.8.  Q v v v $.=.=.[ f.f.8.f.8.  $.=.=.=.=.=.$.=.=.=.=.=.",
"$.=.=.=.=.=.=.=.=.$.$.=.=.=.=.$.$.=.  [ 8.8.8.8.8.8.8.8.8.8.    8.8.8.8.[   Q R '  .e , =.  f.8.f.8.8.  =.=.=.=.=.$.$.=.=.=.=.$.",
"=.=.=.=.=.=.=.=.=.=.=.=.=.=.$.$.=.n /     [ 8.8.8.8.8.8.8.  f.    8.8.8.8.  Q p C V :.>.[ f.8.f.8.f.8.8.  =.=.=.=.=.=.=.=.=.$.$.",
"=.=.=.=.=.=.=.=.=.=.=.=.=.=.%.L C ' :.  f.  8.8.8.8.8.8.8.        8.8.8.8.8.  2.2.2.p   8.8.f.8.f.8.8.8.  =.=.=.=.=.=.=.=.=.=.=.",
"=.=.=.=.=.=.$.=.=.=.=.=.=.u  .-.:.w.p       8.  8.8.8.8.8.8.    8.8.8.8.8.8.  2.:.:.[ 8.8.8.8.8.8.8.8.  =.=.$.=.=.=.=.=.=.=.=.=.",
"=.=.=.=.$.$.=.=.=.$.=.#.D q.:.:.! p [ 8.  8.8.8.8.8.8.8.8.8.8.8.8.[ [ 8.8.8.8.[  .:.  8.8.8.8.8.8.8.  V ..$.=.=.=.$.=.=.=.=.=.=.",
"$.$.=.=.=.=.=.=.=.=.i 2.2.>.-.- -.-.  8.8.8.8.    8.8.  8.8.8.8.[ [ [ [ 8.8.8.  -.-.  8.8.8.8.8.8.  ' -. .3 =.=.=.=.=.$.=.=.=.$.",
"$.=.=.=.=.=.=.=.$.x W ) 4. .K >.-.-.  [ 8.8.    8.    8.8.8.8.8.[ [ [ [ 8.8.8.8.[ >.-.  8.8.8.8.  G ` :.^ Y b =.$.$.=.=.$.=.=.$.",
"=.$.$.=.=.$.=.$.0 r.-.u.t ! -.-.-.-.  [ [ 8.8.8.8.8.8.8.8.8.8.8.8.[ [ 8.8.8.8.8.   .i.]   8.8.  -. .Q s i.-.r.1 $.=.=.$.$.$.$.=.",
"=.$.=.$.$.=.=.P >. . .) ^ -.-.:.-.:.>.  [ 7.7.7.7.7.7.7.7.7.8.8.8.8.8.8.8.8.8.8.8.  E -.  8.8.8.   .-.Y ) -.-.-.z =.$.$.$.$.$.=.",
"$.$.=.$.$.=.=.D  .-. .Q >.-.>.>.>.>.4.  7.7.7.7.7.7.7.7.7.7.8.8.8.  [ 8.8.8.8.8.8.  ^ ^ T   8.8.   . . .G -.-.-.V $.$.$.$.$.=.=.",
"$.$.=.=.=.=.q 1.'  .o 9.>.>.>.4.>.y.F M   7.7.7.7.7.7.7.7.7.8.[   8.8.8.8.8.8.8.8.8.  F   8.8.8.8.  ] -.>.. -. .1.8 $.$.$.=.=.$.",
"$.=.=.%.X.#.^ ) ) W  . . .2.0.t.t.m m @   7.  7.7.7.7.7.7.7.  f.8.8.8.8.8.8.8.8.8.[     8.8.8.8.8.  :.' '  .W ` ` Q ..X.X.&.=.$.",
"=.=.O.>. . .` ` ` ( ( / ( S Y K 4.t ; [ 7.7.7.    7.7.7.7.  f.f.f.8.8.8.8.8.8.8.[ [   8.8.8.8.    V B  . . .} | | | | | } ~ =.=.",
"=.=.~ 1.>. .-. . .] ' ]  . .q.^ e = Z   7.7.7.7.f.  7.7.7.7.  f.8.8.    8.8.8.[ [ [   8.8.    t s.q.4. . .-.-.-.-.-.-.-.-.~ =.=.",
"=.=.~ -.-.-.-. . . . . . . . .t.< s ^   7.7.7.f.f.  7.7.7.7.8.    [ 8.8.8.8.8.8.8.8.8.  8.  ) t p.-. . .-.-.-.-.;.-.;.-.-.~ =.=.",
"=.$.~ -.-.-.` ) -.-. . . . .-.^ # V ^ ^   7.7.7.  7.7.7.7.7.8.8.8.8.8.8.8.8.8.8.8.8.8.  [ [   , ^ -. . .-.-.-.-.) ` ;.-.-.~ =.=.",
"$.=.~ -.:.-. .q.Y >.-.-.-.-.-.V V ! ^ ^ !       7.7.7.7.7.7.8.8.8.8.8.8.8.8.8.8.8.[ [   [ [   ` B -. . .>.>.;.| >.5.H >.>.~ =.$.",
"=.=.~ :.:.-.`  .S >.-.-.-.2.q.V V ^ ( ^   7.7.7.7.7.7.7.7.7.8.8.8.8.8.8.8.8.8.[ [ [ [   [   ( ` B -. .-.>.>.>. .-. .s 4.>.~ $.$.",
"=.=.~ >.:.>.~ B 1.:.>.>.:.-.q.V V ^ ( (   8.8.8.8.8.8.8.8.8.8.8.8.[ f.8.8.8.8.8.8.[ [     ( ( ` B >.:.>.>.>.>.-.s W w.>.>.~ =.=.",
"=.=.~ 4.>.>.4.4.>.>.>.>.>.>.2.V V ( ( _ [ 8.8.8.8.8.8.8.8.8.8.8.[ f.f.8.8.8.8.8.8.8.  ( ( ( ( ` B >.-.>.>.>.>.4.4.4.4.4.2.~ =.=.",
"=.=.~ q.4.>.>.>.>.>.>.>.>.>.2.V V ( ( _ `   8.8.[ 8.8.8.7.7.7.8.  f.8.8.8.8.8.8.8.8.  ( ( ( ! ^ B >.>.>.>.>.4.4.4.4.>.4.2.~ =.=.",
"$.$.~ 5.4.>.>.>.>.>.4.2.2.Q e # ; ( _ ' ' '   8.8.[ [ 8.7.7.8.8.  8.8.8.8.8.8.8.8.  ` ( ( ^ ! r r B ~ 4.4.0.0.2.4.) )  .q.~ =.$.",
"$.=.K 0.0.2.:.:.:.>.) Q ~ :.2.q.s ` ' ' ' ' `   [ 8.8.[ [ [ 8.8.8.  8.8.8.8.8.8.8.  ` ` ( ^ ! V 2.>.| Q D B S >.:.>.1.>.:.K =.$.",
"=.$.m / U T T T T F , t.-.-. . .-.a ] ' ' '   8.8.8.      '           [ 8.8.8.[   ` ` ` ` ` p ' ' ' ' ' 1.e E J J U T U T m $.=.",
"=.$.m J M ' ! ! W G : :.-.-.-.-.-.0.Q ' ' ' `       ( ( ( ( ( ) ) (   8.[ f.8.  R ` ` ` ` V ^ '  .' ' ' -.; ~ ! ) ( | M T m $.=.",
"$.$.r J > q. . .' ( , ` :.-.-.-.-.:.0.s ' ' ' ` -.Q ! ! ! ! ~ ~ ! ! ~         !  .` ` ` a W 4.:.-.-.-.| ` ; '  .:.>.q.< J r =.=.",
"$.$.%.o.q J >. . .' | = ^ 2.:.:.:.:.>.t.) G -.' ` ] ] ] ] ]  . . . . .] Y ] ] ] ` ] s ) ' -.-.-.:.-.1.! + `  .-.-.0.T 9 g %.=.$.",
"$.=.=.=.$.X ] -. . .' Q V  .1.2.:.:.>.:.-.-.p ` )  .` ` ' ' ' ' ' ' ' ` -.` ' ^ ( p >.:.-.:.:.:.:.:._ t K ) ' >.>.` X $.$.=.=.$.",
"=.=.=.=.$.@.m r. . . .( * E ( Y i.>.>.>.:.-.>.` ) , ` ' ' ' ' ' ' ' ' ' ' ` V `  .2.>.>.>.1.>.:.1.R m X K ) -.:.t.> ..=.=.=.=.=.",
"=.=.=.=.=.$.t E 1.) Q ~ r r ^ Y ~ 2.>.>.>.-.-.-.| -.y H H W W W H H H H W Q `  .>.>.1.1.1.1.>.>.' M e Q W G ) 4.V w *.=.=.=.=.=.",
"=.=.=.=.$.$.$.> B i.:.-.0.r.& ^ ! r.w.>.>.>.>.-.-.{ ;.4.4.4.4.-.-.-.-.-. .>.) -.-.1.>.1.>.r.r.V S & ! ` ` ` 0.> = =.=.$.$.=.=.=.",
"=.$.=.=.$.=.=.k t _ 2.-.:. . .W A ! ( -.w.w.-.>.>.~ ;.-.>.;.;.;.-.-.-.-.-.>.~ >.-.>.w.t. .R M r Z |  .| '  .S ; k =.$.=.=.=.=.=.",
"$.=.=.=.=.=.=.=.3 ( R 0.:. .:.:.| $ ! R R W p.y.>.Q >.>.;.;.>.;.;.;.-.-.-.-.Q -.t.p.G S S F & ~ ` | | ' -.r m 5 =.$.$.=.=.=.=.$.",
"=.=.=.=.=.=.=.=.=.l E ^ ] 2.:.>.2.p.C p S W G I ` Q >.;.;.4.4.} ( >.-.>.-.-.Q ) G Z Z m e s >.) ' | | ! F m l =.=.=.=.=.=.=.$.$.",
"=.=.=.=.=.=.=.=.=.=.2 T E ] 2.0.q.H 2.:.R ; s A V Q 5.4.4.4.;.>.w.~ 4.>.>.>.~ a V s ; Q 2.0.Q  . . .( M t 2 =.=.=.=.=.=.=.=.=.=.",
"=.=.=.=.=.=.$.=.=.=.=.@.< ^ E _ ~ :. .-.-. .^ ~ ! Q 4.4.4.4.;.| >.Q 4.>.4.>.~ Z ^ `  .-.>.>.>.w.R N S = @.=.$.=.=.=.=.=.=.=.=.=.",
"=.=.=.=.$.$.=.=.=.$.=.=.=.4 J R V 1.4.:.>.:.' ` ' Q 4.4.4.4.6.6.4.y.>.4.>.>.~ Y '  .>.4.2.;. .+ J m 5 =.$.$.=.=.=.$.=.=.=.=.=.=.",
"$.$.=.=.=.=.=.=.=.=.=.$.=.=.%.7 r E U E E E r.q.t.Q d.d.d.i.i.y.t.t.y.y.a.a.Q ! 4.t.Y G G t M = 7 +.=.=.=.=.=.=.=.=.=.$.=.=.=.$.",
"$.=.=.=.=.=.=.=.$.$.=.=.$.=.=.$.+.h M T U J F N m r / R T T T T T T J R R ^ r 6 d d Z V V w j +.$.=.=.=.=.=.=.=.$.$.=.=.$.=.=.$.",
"=.$.$.=.=.$.=.$.$.=.=.$.$.$.$.=.=.$.$.+ + % J F V r R R R R T T T U T J J J r e V Z @ O O $.$.=.=.$.$.=.=.$.=.$.$.=.=.$.$.$.$.=.",
"=.$.=.$.$.=.=.$.$.=.$.$.$.$.$.=.=.$.=.$.$.=.c f f r R T F F J J J J J J J J r f f c $.$.$.$.$.=.=.$.=.$.$.=.=.$.$.=.$.$.$.$.$.=.",
"$.$.=.$.$.=.=.=.=.$.$.$.$.$.=.=.$.$.=.$.$.=.=.=.=.r V V V S F F F F F F N F r =.=.$.$.$.$.$.=.=.$.$.=.$.$.=.=.=.=.$.$.$.$.$.=.=.",
"$.$.=.=.=.=.=.$.$.$.$.$.$.=.=.$.$.$.=.=.=.=.=.$.$.+.g g g o.o.g g g o.o.o.o.&.$.$.$.$.$.$.=.=.$.$.$.=.=.=.=.=.$.$.$.$.$.$.=.=.$.",
"$.=.=.=.$.=.=.$.=.$.$.$.$.=.=.$.$.=.=.=.$.=.=.$.=.$.$.$.$.=.=.$.$.=.=.=.$.=.=.$.=.$.$.$.$.=.=.$.$.=.=.=.$.=.=.$.=.$.$.$.$.=.=.$.",
"=.=.=.=.$.=.$.$.=.$.$.=.=.=.=.=.=.=.=.=.$.=.$.$.=.$.$.=.=.=.=.=.=.=.=.=.$.=.$.$.=.$.$.=.=.=.=.=.=.=.=.=.$.=.$.$.=.$.$.=.=.=.=.=.",
"=.=.=.=.=.$.$.$.=.=.=.=.=.=.=.=.=.=.=.=.=.$.$.$.=.=.=.=.=.=.=.=.=.=.=.=.=.$.$.$.=.=.=.=.=.=.=.=.=.=.=.=.=.$.$.$.=.=.=.=.=.=.=.=.",
"=.=.=.=.$.$.$.=.=.=.=.$.$.=.=.=.=.=.=.=.$.$.$.=.=.=.=.$.$.=.=.=.=.=.=.=.$.$.$.=.=.=.=.$.$.=.=.=.=.=.=.=.$.$.$.=.=.=.=.$.$.=.=.=.",
"=.$.=.=.$.=.=.=.=.=.$.=.=.=.=.=.=.$.=.=.$.=.=.=.=.=.$.=.=.=.=.=.=.$.=.=.$.=.=.=.=.=.$.=.=.=.=.=.=.$.=.=.$.=.=.=.=.=.$.=.=.=.=.=.",
"$.=.=.=.=.=.=.=.=.$.$.=.=.=.=.$.$.=.=.=.=.=.=.=.=.$.$.=.=.=.=.$.$.=.=.=.=.=.=.=.=.$.$.=.=.=.=.$.$.=.=.=.=.=.=.=.=.$.$.=.=.=.=.$.",
"=.=.=.=.=.=.=.=.=.=.=.=.=.=.$.$.=.=.=.=.*.*.*.*.*.*.*.*.*.*.$.$.=.=.=.=.=.=.=.=.=.=.=.=.=.=.$.$.=.=.=.=.=.=.=.=.=.=.=.=.=.=.$.$.",
"=.=.=.=.=.=.=.=.=.=.=.=.=.=.=.=.=.=.=.=.*.*.*.*.*.*.*.*.*.*.=.=.=.=.=.=.=.=.=.=.=.=.=.=.=.=.=.=.=.=.=.=.=.=.=.=.=.=.=.=.=.=.=.=.",
"=.=.=.=.=.=.$.=.=.=.=.=.=.=.=.=.=.=.=.=.=.*.$.*.*.*.*.*.*.*.=.=.=.=.=.=.=.=.$.=.=.=.=.=.=.=.=.=.=.=.=.=.=.=.$.=.=.=.=.=.=.=.=.=."
};
