/* XPM */
static char *d5fa8b244db5434b89d672ceeef6f41fkYFJNYfQH7cmbLSe[] = {
/* columns rows colors chars-per-pixel */
"64 64 11 1 ",
"  c black",
". c #E11F15",
"X c #E32016",
"o c #659243",
"O c #669344",
"+ c #7F9B48",
"@ c #7F9C48",
"# c #809D49",
"$ c #F2D14C",
"% c #F4D34D",
"& c white",
/* pixels */
"####OO###O##########OO###O##########OO###O##########OO###O######",
"OO#########O###OOO#########O###OOO#########O###OOO#########O###O",
"O#######OO##O##OO#######OO##O##OO#######OO##O##OO#######OO##O##O",
"#OO##O#OO##OOOO##OO##O#OO##OOOO##OO##O#OO##OOOO##OO##O#OO##OOOO#",
"#O#OO##OO#OOOOO##O#OO##OO#OOOOO##O#OO##OO#OOOOO##O#OO##OO#OOOOO#",
"OO#OO####OOOOO##OO#OO####OOOOO##OO#OO####OOOOO##OO#OO####OOOOO##",
"OO#####OOOOOO##OOO#####OOOOOO##OOO#####OOOOOO##OOO#####OOOOOO##O",
"O###O##O#OOOO##OO###O##O#OOOO##OO###O##O#OOOO##OO###O##O#OOOO##O",
"####O#OO#OO#########O#OO#OO#########O#OO#OO#########O#OO#OO#####",
"#####OOO#############OOO#############OOO#############OOO########",
"####OOO####OO#######OOO####OO#######OOO####OO#######OOO####OO###",
"#O##O#####O######O##O#####O######O##O#####O######O##O#####O#####",
"O########OO####OO########OO####OO######X XO####OO########OO####O",
"##############OO##############OO#####X    ####OO##############OO",
"################X##################X &&  X######################",
"######O########X  ####O########### &&&%  #############O#########",
"####OO###O#####    #OO###O######  &&%%% XO##########OO###O######",
"OO#########O###   % ######X     &&&%%%% ###O###OOO#########O###O",
"O#######OO##O##X %%% ##   &&%% %&&%%%% #OO##O##  #######OO##O##O",
"#OO##O#OO##OOOO# %%%%X &&&&%%%%%%%%%%%XOO##OOO && O##O#OO##OOOO#",
"#O#OO##OO#OOOOO# %%%X&&&&&%%%%%%%%%%% #OO#OOO &&& #OO##OO#OOOOO#",
"OO#OO####OOOOO##O %X%&&&%%%%%%%%%%%% ####OOOX&&%&% OO####OOOOO##",
"OO#####OOOOOO##OO X%%%%%%%%%%  %%%%X ##OOOOO &%&%% ####OOOOOO##O",
"O###O##O#OOOO##OO#  X%%%%%%% &  %%%% ##O#OOX&%&%&%% O##O#OOOO##O",
"####O#OO#OO####### & %%%%%%%    %%%%% OO#O %%&%&%%% O#OO#OO#####",
"#####OOO##########   % %%%%%%  %%%%%% OO#X%%%%%%%% ##OOO########",
"####OOO####OO####X% %%%%%%%%%%%%XX%%%%X## %%%%%%% ##OOO####OO###",
"#O##O#####O###### %%%%  %% %%%%XXXX%%% ## %%%%%% O##O#####O#####",
"O########OO####OO X%%  %  %%%%%XXXX%%%%X#O %%%% O########OO####O",
"##############OO# XX%%%%%%%%%%%%XX%%%%% ### %% O##############OO",
"################## X%%%%%%%%%%%%%%%%%%%% ## %%% ################",
"######O########### %%%%%%%%%%%%% X%%%%%% ### %% ######O#########",
"####OO###O######### %%%%%%%%%%X %%%%%%%%% # %%%% ###OO###O######",
"OO#########O###OOO# % %%%%%%% &%%%%%%%%%X  %%%%% O#########O###O",
"O#######OO##O##OO#X%%%  %%%% &&&%%%%%%%XX %%%%  O#######OO##O##O",
"#OO##O#OO##OOOO##O %%%%& %%%% &%%  %%%XXX %%  O##OO##O#OO##OOOO#",
"#O#OO##OO#OOOOO##O %%%&& %%%%%  X%%%%%%%%% % OO##O#OO##OO#OOOOO#",
"OO#OO####OOOOO##OO# %%% %%%%%%%%%%%%%%%%%% XX ##OO#OO####OOOOO##",
"OO#####OOOOOO##OOO##   %%%%%%%%%%%%%%%%%XX XX #OOO#####OOOOOO##O",
"O###O##O#OOOO##OO## %%$$$$$$$$$$%%%%%%XXXX X ##OO###O##O#OOOO##O",
"####O#OO#OO######## %%$$$$$$$$$$X&%%%%%%XX  ########O#OO#OO#####",
"#####OOO###########X%%$$$$$$$$$.&&%%%%%%% ###########OOO########",
"####OOO####OO####### %$X$$$$$$$ &%%%%%%%% #OO#######OOO####OO###",
"#O##O#####O######O##O $$XX$$$$$ %%%%%%%% #O######O##O#####O#####",
"O########OO####OO##### X$$XXX$$$ %%%%%%% OO####OO########OO####O",
"##############OO##### $$$   @     X%%%X ######OO##############OO",
"######################   @@@@@@+# %X&% #########################",
"######O###############o@@@@@@@@+##    O###############O#########",
"####OO###O##########OO#@@o@@@@@@####OO###O##########OO###O######",
"OO#########O###OOO#########O###OOO#########O###OOO#########O###O",
"O#######OO##O##OO#######OO##O##OO#######OO##O##OO#######OO##O##O",
"#OO##O#OO##OOOO##OO##O#OO##OOOO##OO##O#OO##OOOO##OO##O#OO##OOOO#",
"#O#OO##OO#OOOOO##O#OO##OO#OOOOO##O#OO##OO#OOOOO##O#OO##OO#OOOOO#",
"OO#OO####OOOOO##OO#OO####OOOOO##OO#OO####OOOOO##OO#OO####OOOOO##",
"OO#####OOOOOO##OOO#####OOOOOO##OOO#####OOOOOO##OOO#####OOOOOO##O",
"O###O##O#OOOO##OO###O##O#OOOO##OO###O##O#OOOO##OO###O##O#OOOO##O",
"####O#OO#OO#########O#OO#OO#########O#OO#OO#########O#OO#OO#####",
"#####OOO#############OOO#############OOO#############OOO########",
"####OOO####OO#######OOO####OO#######OOO####OO#######OOO####OO###",
"#O##O#####O######O##O#####O######O##O#####O######O##O#####O#####",
"O########OO####OO########OO####OO########OO####OO########OO####O",
"##############OO####@@@@@@@@@+OO##############OO##############OO",
"####################@@@@@@@@@+##################################",
"######O##############@o@@@@@@@########O###############O#########"
};
