/* XPM */
static char *d619c62eee884e4ff7665792e56d170clgCMoiq2ecxZAdU1[] = {
/* columns rows colors chars-per-pixel */
"64 64 11 1 ",
"  c black",
". c #FD5723",
"X c #FF5823",
"o c #659243",
"O c #669344",
"+ c #7F9B48",
"@ c #7F9C48",
"# c #809D49",
"$ c #FDD054",
"% c #FFD255",
"& c white",
/* pixels */
"####OO###O##########OO###O##########OO###O##########OO###O######",
"OO#########O###OOO#########O###OOO#########O###OOO#########O###O",
"O#######OO##O##OO#######OO##O##OO#######OO##O##OO#######OO##O##O",
"#OO##O#OO##OOOO##OO##O#OO##OOOO##OO##O#OO##OOOO##OO##O#OO   OOO#",
"#O#OO##OO#OOOOO##O#OO##OO#OOOOO##O#OO##OO#OOOOO##O#OO##  && OOO#",
"OO#OO####OOOOO##OO#OO  ##OOOOO##OO#OO####OOOOO##OO#OO  &&& OOO##",
"OO#####OOOOOO##OOO#   XOOOOOO##OOO#####X    O##OOO## &&&& OOO##O",
"O###O##O#OOOO##OO#    #O#OOOO##OO###OX    X  ##OO#  &&&& OOOO##O",
"####O#OO#OO######     OO#OO########X    %X ###### &&&&& #OO#####",
"#####OOO########     XOO##########    X%X ###### %&%&&& ########",
"####OOO####OO###XX   OO####OO####    X%X ##OO## %&%&%& ####OO###",
"#O##O#####O#### %    #####O#####    X%X% #O### %%%%%& ####O#####",
"O########OO####X%    ####OO####    X%X% #OO## %%%%%%% ###OO####O",
"############## %%   X#########X    %X%% ##### %%%%%% #########OO",
"############## %    ##########    X%%% ##### %%%%%%% #    ######",
"######O####### %    ##XX     #    %%%% ##### %%%%%%%  %%% ######",
"####OO###O#### X      %%%%%XX    X%%%% ##O# %%%%%%%X%%%% O######",
"OO#########O##      X%%%%%X%X    %%%%%% ### %%%%%%%%%%%% ##O###O",
"O#######OO##O##   XX%X%X%X%XX    %%%%%%%  # %%%%%%%%%%% OO##O##O",
"#OO##O#OO##OOOO XXXXX%X%X%XXXX   X%%%%%%%% %%%%% %%%%%% O##OOOO#",
"#O#OO##OO#OOOOX  XXXXXXXXX   X    X%%   %% %%%  %%%%%% OO#OOOOO#",
"OO#OO####OOOOO &  XXXXXX &  XXX    X ### % %% # %%%%%% ##OOOOO##",
"OO#####OOOOOO    XXXXXXX    XXXXX   X #OO  % ## %%%%% #OOOOOO##O",
"O###O##O#OOOO X XXXXXXXXX  XXXXXXXXXX #O# O O## %X%X% #O#OOOO##O",
"####O#OO#OO# %XXXX XXXXXXXXX%%%XXXXX   O  O#### X%X%X OO#OO#####",
"#####OOO#### %XX XXXXXXXXXX%%%%%XXXXX    ###### %X%X OOO########",
"####OOO####O %XXX       XXX%%%%%XXXXXX ####OO### %XX OO####OO###",
"#O##O#    O# XXXXX &&& XXXX%%%%%XXXXXX ###O##### XXX #####O#####",
"O#### XX   ## XXXXX  XXXXXXX%%%XXXXXXXX #OO####O XX #####OO####O",
"##### X   X   XXXXXXXXXXXXXXXXXXXXXXX     X###OO# X ##########OO",
"#####    XXXX XXXXXXXXXXXXXXXXXXXXX  X XX  X##### X ############",
"######  XXXXXXXX%%%%%XXXXXXXXXXXX  XX  XX   ######  X#O#########",
"####OO XXXXX X%%%%%%%%%%XXXXXXXX %%XX       ######X  O###O######",
"OO##### XXXXX%%%%%%%%%%%%XXXXXXX%%XXX      X###OOO#  ######O###O",
"O###### XXX %%&&&&&%%%%%%%%XXXXXXXXXX      #O##OO##  X##OO##O##O",
"#OO##O#O X %%&&&&&&&%%%%%%%%XXXXXXXXXX    #OOOO##OOX  #OO##OOOO#",
"#O#OO##OO  %&&&&&&&&%%%%%%%%XXXXXXXXXXX  #OOOOO##O#O  #OO#OOOOO#",
"OO#OO####O %&&&&&&&%%%%%%%%%%XXXXXXXX   XOOOOO##OO#OX  ##OOOOO##",
"OO#####OO %%&&&&&&%%%%%%%%%%%XXXXX   XX  OOOO##OOO###  XOOOOO##O",
"O###O##O# %%&&&&&%%%%%%%%%%%%%XXXXXXXX   OOOO##OO###O#  #OOOO##O",
"####O#OO# %%%&&&%%%%%%%%%%%%%%..XXXXX    OO#########O#  XOO#####",
"#####OOO# %%%%%%%%%%%%%%%%%%%%..XXXXXX   X###########OX X#######",
"####OOO##  %%%%%%%%%%%%%%%%%% ..XXXXXXXXX #OO#######OOO  ##OO###",
"#O##O### X %%%%%%%%%%%%%%%%% ...XXXXXXXX  O######O##O##  #O#####",
"O####### XX %%%%%%%%%%%%%%% .%%.XXXXXXX   O####OO######  OO####O",
"######## XX %%%%%%%%%%%%%%% %%%.XXXXXX    ####OO#######  #####OO",
"######### XX %%%%%%%%%%%%% .%%..XXXXXXX   #############  #######",
"######O## XXX %%%%%%%%%%%% .....XXXXXXXXX ############  X#######",
"####OO###O XXX  %%%%%%%%%% .....XXXXXXXXX ##########OX  #O######",
"OO#########  XXX   %%%%%%%% XXXXXXXXXXXX   O###OOO##X  X###O###O",
"O#######OO##X   XXXX   XXXX XXXXXXXXXXXX     X#OO#X   X#OO##O##O",
"#OO##O#OO#X       XXXX       XXXXXXXXXX O#           X#OO##OOOO#",
"#O#OO##OO# X%X  XXXX  #OO#OOO   XXXXX  XO#OOX      XO##OO#OOOOO#",
"OO#OO####O      XX  O####OOOOO  X       #OOOOO##OO#OO####OOOOO##",
"OO#####OOOO      X#####OOOOOO  X%X     OOOOOO##OOO#####OOOOOO##O",
"O###O##O#OOOO##OO###O##O#OOOO        X#O#OOOO##OO###O##O#OOOO##O",
"####O#OO#OO#########O#OO#OO###    X#O#OO#OO#########O#OO#OO#####",
"#####OOO#############OOO#############OOO#############OOO########",
"####OOO####OO#######OOO####OO#######OOO####OO#######OOO####OO###",
"#O##O#####O######O##O#####O######O##O#####O######O##O#####O#####",
"O########OO####OO########OO####OO########OO####OO########OO####O",
"##############OO####@@@@@@@@@+OO##############OO##############OO",
"####################@@@@@@@@@+##################################",
"######O##############@o@@@@@@@########O###############O#########"
};
