/* XPM */
static char *_59efa0e2bb24222c9a509d4c076471bCmfcKn9Y0p11NiwG[] = {
/* columns rows colors chars-per-pixel */
"64 64 11 1 ",
"  c black",
". c #FD5723",
"X c #FF5823",
"o c #659243",
"O c #669344",
"+ c #7F9B48",
"@ c #7F9C48",
"# c #809D49",
"$ c #FDD054",
"% c #FFD255",
"& c white",
/* pixels */
"####OO###O##########OO###O##########OO###O##########OO###O######",
"OO#########O###OOO#########O###OOO#########O###OOO#########O###O",
"O#######OO##O##OO#######OO##O##OO#######OO##O##OO#######OO##O##O",
"#OO##O#OO##OOOO##OO##O#OO##OOOO##OO##O#OO##OOOO##OO##O#OO##OOOO#",
"#O#OO##OO#OOOOO##O#OO##OO#OOOOO##O#OO##OO#OOOOO##O#OO##OO#OOOOO#",
"OO#OO####OOOOO##OO#OO####OOOOO##OOX   X##OOOOO##OO#OO####OOOOO##",
"OO#####OOOOOO##   X####OOOOOO##OX   XX  OOOOO##OOO#####OOOOOO##O",
"O###O##O#OOOO    X##O##O#OOOO#X   XXX #O#OOOO##OO##X   O#OOOO##O",
"####O#OO#OO#     ###O#OO#OO##X   XX% #OO#OO######X &&& O#OO#####",
"#####OOO###     X####OOO####    XX% #OOO#######X &&&& OO########",
"####OOO####     ####OOO####    XX%X OOO####OO# &&&&& OO####OO###",
"#O##O##### X   X#O##O#####X    X%X #O#####O## %&%&& O#####O#####",
"O########O X   OO#X      O    X%X% ######OO# %&%&% ######OO####O",
"######### XX   O  %%XXXXX     %X% ######### %%%&% ############OO",
"######### X     %%%%%XXXX    XX%% ########X%%%%%& ##############",
"######O## X   X%X%X%XXXXX    X%%%% ###O### %%%%% ##X   #########",
"####OO###O   X%X%XXXX  XXX   XX%%%% XO###X%%%%%%%  %%% ##O######",
"OO########  XXXXXXXX    XX   X%%%%%%%X### %%%%%%%%%%% #####O###O",
"O#######OO  XXXXXXXX &  XXX   %%%  %% ##X%%%%%%%%%%% ###OO##O##O",
"#OO##O#OO#   XXXXXXXX  XXXXX   % OO % #O %%%  %%%%% #O#OO##OOOO#",
"#O#OO##OO  & XXXXXXXXXXX%%%XXX  X #O  #O %%  %%%%% OO##OO#OOOOO#",
"OO#OO#### X  X XXXXX XX%%%%%XXXXX #O  ## % O %%%%% OO####OOOOO##",
"OO#####OX%XXXXXX     XX%%%%%XXXXX #  ##O  OO %%%% #####OOOOOO##O",
"O###O##O %XX    &&& XXX%%%%%XXXXXX  O##O#OOXX%X%X ##O##O#OOOO##O",
"####O#OO %XXXX &&& XXXXX%%%XXXXXXX #O#OO#OO %X%X ###O#OO#OO#####",
"#####OOO %XXXXXX  XXXXXXXXXXXXX     #OOO### X%X% ####OOO########",
"####OOO## XXXXXXXXXXXXXXXXXXXX%X%X%X    ### %X% ####OOO####OO###",
"#O##O#### XXXXXXXXXXXXXXXXXXX%X%X%XXX    #O X%X #O##O#####O#####",
"O########O XXXXXXXXXXXXXXXXXXX%XXXXX X X  O# XX O########OO####O",
"###########XXXXXX%%%%%%XXXXXXXXXXXX   X   ## X X##############OO",
"########### XXX%%%%%%%%%%XXXXXXXXXX       ##   #################",
"######O### %XX%%%&&%%%%%%%%XXXXXX        ###X  #######O#########",
"####OO##  %XXX%&&&&&%%%%%%%%XXX  XXX   X O###  X####OO###O######",
"OO####  %XX%X%&&&&&&&%%%%%%%%XXXXXXXXXXX ##O#   OO#########O###O",
"O####   XXXX %&&&&&&&%%%%%%%%%XXXXXXXXXXX ##OX  X#######OO##O##O",
"#OO# X   XXX %&&&&&%&%%%%%%%%%XXX XXXXXXX  OOOO    XXO#OO##OOOO#",
"#O#O       X %%&%&%&%%%%%%%%%%% XXXXXXXX   OOOO#X      XO#OOOOO#",
"OO#OO         %%&%&%%%%%%%%%%%% X%%XXXXX    OO##OO#OX    XOOOO##",
"OO####    OOO %%%%%%%%%%%%%%%% X%%%%XXXXXXX O##OOO#####O  XOO##O",
"O###O##O#OOOO# %%%%%%%%%%%%%%% X%%%%XXXXXXX O##OO###O##O#  OO##O",
"####O#OO#OO### %%%%%%%%%%%%%%% .X%X%XXXXXXXX #######O#OO   #####",
"#####OOO######  %%%%%%%%%%%%%% .%X%XXXXXXXXX ########OX   ######",
"####OOO####OO# XX%%%%%%%%%%%%%% XXXXXXXXXXXX X####XX    X##OO###",
"#O##O#####O### %X %%%%%%%%%%%%% XXXXXXXXXXXX           ###O#####",
"O########OO#### %X  %%%%%%%%%%.% XXXXXXXXXX         X####OO####O",
"##############O %%XX  %%%%%.%.%.%  XXXXXXXX ##OO##############OO",
"################ XXXXX   %.%.%.%     XXXX  X ###################",
"######O##########  XXX...       #####   XXXX #########O#########",
"####OO###O#########  XX..  . @@@####OO# XXXX #######OO###O######",
"OO#########O###OOO###    XXXX #OOO##### XXXXX #OOO#########O###O",
"O#######OO##O##OO###### XXXXX #OO####### X    #OO#######OO##O##O",
"#OO##O#OO##OOOO##OO##O# X    XO##OO##O#O      O##OO##O#OO##OOOO#",
"#O#OO##OO#OOOOO##O#OO##       O##O#OO##O      X##O#OO##OO#OOOOO#",
"OO#OO####OOOOO##OO#OO##       ##OO#OO###X X    #OO#OO####OOOOO##",
"OO#####OOOOOO##OOO#####   X   #OOO#####OO  X   OOO#####OOOOOO##O",
"O###O##O#OOOO##OO###O##O X   ##OO###O##O# X X XOO###O##O#OOOO##O",
"####O#OO#OO#########O#OO  X  #######O#OO#O   X######O#OO#OO#####",
"#####OOO#############OOO#   #########OOO#############OOO########",
"####OOO####OO#######OOO####OO#######OOO####OO#######OOO####OO###",
"#O##O#####O######O##O#####O######O##O#####O######O##O#####O#####",
"O########OO####OO########OO####OO########OO####OO########OO####O",
"##############OO####@@@@@@@@@+OO##############OO##############OO",
"####################@@@@@@@@@+##################################",
"######O##############@o@@@@@@@########O###############O#########"
};
