/* XPM */
static char *_64ba20b476e4d74d0dc1cf87ba14601nENUMlK93TSirZJj[] = {
/* columns rows colors chars-per-pixel */
"64 64 10 1 ",
"  c black",
". c #217342",
"X c #995745",
"o c #9A5846",
"O c #659243",
"+ c #669344",
"@ c #7F9B48",
"# c #7F9C48",
"$ c #809D49",
"% c white",
/* pixels */
"$$$$++$$$+$$$$$$$$$$++$$$+$$$$$$$$$$++$$$+$$$$$$$$$$++$$$+$$$$$$",
"++$$$$$$$$$+$$$+++$$$$$$$$$+$$$+++$$$$$$$$$+$$$+++$$$$$$$$$+$$$+",
"+$$$$$$$++$$+$$++$$$$$$$++$$+$$++$$$$$$$++$$+$$++$$$$$$$++$$+$$+",
"$++$$+$++$$++++$$++$$+$++$$++++$$++$$+$++$$++++$$++$$+$++$$++++$",
"$+$++$$++$+++++$$+$++$$++$+++++$$+$++$$++$+++++$$+$++$$++$+++++$",
"++$++$$$$+++++$$++$++$$$$+++++$$++$++$$$$+++++$$++$++$$$$+++++$$",
"++$$$$$++++++$$+++$$$$$++++++$$+++$$$$$++++++$$+++$$$$$++++++$$+",
"+$$$+$$+$++++$$++$$$+$$+$++++$$++$$$+$$+$++++$$++$$$+$$+$++++$$+",
"$$$$+$++$++$$$$$$$$$+$++$++$$$$$$$$$+$++$++$$$$$$$$$+$++$++$$$$$",
"$$$$$+++$$   $$$$$$$$+++$$$$$$$$$$$$$+++$$$$$$$$$$$$$+++$$$$$$$$",
"$$$$+++$$ %%o $$$$$$+++$$$$+   $$$$$+++$$$$++$$$$$$$+++$$$$++$$$",
"$+$$+$$$$ %oo $$$+$$+$$$$$+ %%% $+$$+$$$$$+   $$$+$$+$$$$$+$$$$$",
"+$$$$$$$$ oooo ++$$$$$$$$+ o%%% +$$$$$$$$+ ... ++$$$$$$$$++$$$$+",
"$$$$$$$$$$ ooo +$$$$$$$$$ ooo%% $$$$$$$$$ ..... $$$$$$$$$$$$$$++",
"$$$$$$$$$$$ ooo $$$$$$$  oooo  $$$$$$$$$ .%%.... $$$$$$$$$$$$$$$",
"$$$$$$+$$$$$ ooo $$$.  oooo  $$$$$$$$$+$ .%%.... $$$$$+$$$$$$$$$",
"$$$$++$$$+$$$ ooo.  oooooo  $$$$$$$$++$$ ....... $$$++$$$+$$$$$$",
"++$$$$$$$$$+$$ ooooooooo  $+$$$+++$$$$$$$ ..... ++$$$$$$$$$+$$$+",
"+$$$$$$$++$$+$$ ooooo   ++$$+$$++$$$$$$$++ ... ++$$$$$$$++$$+$$+",
"$++$$+$++$$++++$  o. ...    +++$$++$$+   $$   +$$   $+$++$$++++$",
"$+$++$$++$+++++$ ooo ooo%o%o  +$$+$++ ... + oo   ... $$++$+++++$",
"++$++$$$$+++++$$  oo oo%o%o%oo.$++$+ ..... % oo ..... $$$+++++$$",
"++$$$$$++++++$$+  ooo oo%o%ooo +++$ .%%....  o .%%.... ++++++$$+",
"+$$$+$$+$++++$$ oo ooooooooooo ++$$ .%%....  o .%%.... +$++++$$+",
"$$$$+$++$++$$$$ oo oooooooooooo $$$ ....... oo ....... +$++$$$$$",
"$$$$$+++$$$$$$$.ooooooooooooooo $$$$ ..... %o%o ..... ++$$$$$$$$",
"$$$$+++$$$$++$$$ ooooooooooooooo$$$$+ ...  o%o%  ... ++$$$$++$$$",
"$+$$+$$$$$+$$$$$ o ooooooooooooo +$$+$   $+ o% $$   +$$$$$+$$$$$",
"+$$$$$$$$++$$$$+.ooooooo oooooooo $$$$$$$++ oo ++$$$$$$$$++$$$$+",
"$$$$$$$$$$$$$$++$ oooooooooooooooo   $$$$$  oo +$$$$$$$$$$$$$$++",
"$$$$$$$$$$$$$$$$$ o %%ooooooooooo  oo     oooo $$$$$$$$$$$$$$$$$",
"$$$$$$+$$$$$$$$$$$ oo%%%%% ooooooooooooooooo  $$$$$$$$+$$$$$$$$$",
"$$$$++$$$+$   $$$$$ ooooooooooooooooooooo   $$$$$$$$++$$$+$$$$$$",
"++$$$$$$$$ ... +++   ooooooooooooooooo   $$+$$$+++$$$$$$$$$+$$$+",
"+$$$$$$$+ %%... + ooo  o%%oooo%%ooooo  $++$$+$$++$$$$$$$++$$+$$+",
"$++$$+$+ .%%.... ooo ..  %%ooo%%%oooooo +$$++++$$++$$+$++$$++++$",
"$+$++$$+ ....... oo ..... %oooo%%%ooooo +$+++++$$+$++$$++$+++++$",
"++$++$$$ ....... % .%%.... %oooo%%oooooo +++++$$++$++$$$$+++++$$",
"++$$$$$++ ..... %o .%%....  oooooooooooo ++++$$+++$$$$$++++++$$+",
"+$$$+$$+$+ ... oo% ....... + ooooooooooo ++++$$++$$$+$$+$++++$$+",
"$$$$+$++$++   $ o % ..... O# XXXooooooooo +$$$$$$$$$+$++$++$$$$$",
"$$$$$+++$$$$$$$    $ ... #### XXoooo%%ooo $$$$$$$$$$$+++$$$$$$$$",
"$$$$+++$$$$++$ ... $+   ###OO X%oooo%%%ooo ++$$$$$$$+++$$$$++$$$",
"$+$$+$$$$$+$$ ..... +$####O### %%oooo%%ooo $$$$$$+$$+$$$$$+$$$$$",
"+$$$$$$$$++$ .%%.... $###OO### X%oooo%%%ooo $$$++$$$$$$$$++$$$$+",
"$$$$$$$$$$$$ .%%.... $#######   oooooo%%ooo   ++$$$$$$$$$$$$$$++",
"$$$$$$$$$$$$ ....... $#####. %XX.ooooooooooooo $$$$$$$$$$$$$$$$$",
"$$$$$$+$$$$$$ ..... $$O###.X%XXXoooooooooooo%o% $$$$$$+$$$$$$$$$",
"$$$$++$$$+$$$$ ... $++$##O %X%XXoo.oooooooo oooo  $$++$$$+$$$$$$",
"++$$$$$$$$$+$$$   $$$$$$   ooooooo  ooooo    ooo %  $$$$$$$+$$$+",
"+$$$$$$$++$$+$$++$$$$$$ %%o  oo   $$.    +$$+ oooooo $$$++$$+$$+",
"$++$$+$++$$++++$$++$$+.ooooooooo ++$$+$++$$++ oooooo +$++$$++++$",
"$+$++$$++$+++++$$+$++$.ooooooo  $+$++$$++$++++  ooo +$$++$+++++$",
"++$++$$$$+++++$$++$++$$       $$++$++$$$$+++++$$   ++$$$$+++++$$",
"++$$$$$++++++$$+++$$$$$++++++$$+++$$$$$++++++$$+++$$$$$++++++$$+",
"+$$$+$$+$++++$$++$$$+$$+$++++$$++$$$+$$+$++++$$++$$$+$$+$++++$$+",
"$$$$+$++$++$$$$$$$$$+$++$++$$$$$$$$$+$++$++$$$$$$$$$+$++$++$$$$$",
"$$$$$+++$$$$$$$$$$$$$+++$$$$$$$$$$$$$+++$$$$$$$$$$$$$+++$$$$$$$$",
"$$$$+++$$$$++$$$$$$$+++$$$$++$$$$$$$+++$$$$++$$$$$$$+++$$$$++$$$",
"$+$$+$$$$$+$$$$$$+$$+$$$$$+$$$$$$+$$+$$$$$+$$$$$$+$$+$$$$$+$$$$$",
"+$$$$$$$$++$$$$++$$$$$$$$++$$$$++$$$$$$$$++$$$$++$$$$$$$$++$$$$+",
"$$$$$$$$$$$$$$++$$$$#########@++$$$$$$$$$$$$$$++$$$$$$$$$$$$$$++",
"$$$$$$$$$$$$$$$$$$$$#########@$$$$$$$$$$$$$$$$$$$$$$$$$$$$$$$$$$",
"$$$$$$+$$$$$$$$$$$$$$#O#######$$$$$$$$+$$$$$$$$$$$$$$$+$$$$$$$$$"
};
