/* XPM */
static char *_aa22fb0db984c2d910443cdd3c5a4b4qSDUzdV7r2PqKCnR[] = {
/* columns rows colors chars-per-pixel */
"64 64 10 1 ",
"  c black",
". c #217342",
"X c #995745",
"o c #9A5846",
"O c #659243",
"+ c #669344",
"@ c #7F9B48",
"# c #7F9C48",
"$ c #809D49",
"% c white",
/* pixels */
"$$$$++$$$+$$$$$$$$$$++$$$+$$$$$$$$$$++$$$+$$$$$$$$$$++$$$+$$$$$$",
"++$$$$$$$$$+$$$+++$$$$$$$$$+$$$+++$$$$$$$$$+$$$+++$$$$$$$$$+$$$+",
"+$$$$$$$++$$+$$++$$$$$$$++$$+$$++$$$$$$$++$$+$$++$$$$$$$++$$+$$+",
"$++$$+$++$$++++$$++$$+$++$$++++$$++$$+$++$$++++$$++$$+$++$$++++$",
"$+$++$$++$+++++$$+$++$$++$+++++$$+$++$$++$+++++$$+$++$$++$+++++$",
"++$++$$$$+++++$$++$++$$$$+++++$$++$++$$$$+++++$$++$++$$$$+++++$$",
"++$$$$$++++++$$+++$$$$$++++++$$+++$$$$$++++++$$+++$$$$$++++++$$+",
"+$$$+$$+$++++$$++$$$+$$+$++++$$++$$$+$$+$++++$$++$$$+$$+$++++$$+",
"$$$$+$++$++$$$$$   $+$++$++$$$$$$$$$+$++$   $$$$$$$$+$++$++$$$$$",
"$$$$$+++$$$$$$$ ... $+++$.  $$$$$$$$$+++ o%% $$$$$$$$+++$$$$$$$$",
"$$$$+++$$$$++$ .%%.. ++$.%%o $$$$$$$+++ oo%% $$$$$$$+++$$$$++$$$",
"$+$$+$$$$$+$$ ..%%... $$ %%oo $$$+$$+$ ooooo $$$$+$$+$$$$$+$$$$$",
"+$$$$$$$$++$$ ....... $$ ooooo  +$$$$ oooo  $$$++$$$$$$$$++$$$$+",
"$$$$$$$$$$$$$ ....... $$$  ooooo $$  oooo $$$$++$$$$$$$$$$$$$$++",
"$$$$$$$$$$$$$$ ..... $$$$$$ .oooo  ooooo $$$$$$$$$$$$$$$$$$$$$$$",
"$$$$$$+$$$$$$$$ ... $$+   $$$ ooooooooo $$$$$$$$$$$$$$+$$$$$$$$$",
"$$$$++$$$+$$$$$$    ++ ... $$$. ooooo  $$+$$$$$$$$$$++$$$+$$$$$$",
"++$$$$$$$$$+$$$++ o $ .%%.. $$$+ ooo $$$$$$+$$$+++$$$$$$$$$+$$$+",
"+$$$$$$$++$$+   + oo ..%%... $$+ ooo $$$++$$+$$++$$$$$$$++$$+$$+",
"$++$$+$++$$+ ... % o ....... +  o oo  $++$$++++$$++$$+$++$$++++$",
"$+$++$$++$+ .%%..  o .......  ooo oo o  +$++   $$+$++$$++$+++++$",
"++$++$$$$+ ..%%... oo .....  %o%o.oooooo ++ ... ++$++$$$$+++++$$",
"++$$$$$+++ ....... %o% ...  %o%o%ooooooo + .%%.. +$$$$$++++++$$+",
"+$$$+$$+$+ ....... o%oo   + o%o%ooooooooo ..%%... $$+$$+$++++$$+",
"$$$$+$++$++ ..... o%o% +$++$ oooooooo ooo ....... $$+$++$++$$$$$",
"$$$$$+++$$$$ ... $  oo +$$$$ oo ooooooooo ....... $$$+++$$$$$$$$",
"$$$$+++$$$$++   $$$$ oo $$$+ oooooooooooo  ..... $$$   $$$$++$$$",
"$+$$+$$$$$+$$$$$$+$$ oo $$+$ oooooo%%% oo + ... $+$ ... $$+$$$$$",
"+$$$$$$$$++$$$$++$$$ ooo ++$ o %%%%oooooo +$    +$ .%%.. ++$$$$+",
"$$$$$$$$$$$$$$++$$$$$ ooo   ooooooooooooo $$$ o $ ..%%... $$$$++",
"$$$$$$$$$$$$$$$$$$$$$$ oooo oooooooooooo $$$$ o   ....... $$$$$$",
"$$$$$$+$$$$$$$$$$$$$$$+ ooo oooooooooooo $$$ %o%o ....... $$$$$$",
"$$$$++$$$+$$$$$$$$$$++$$ o oo%oooooooooo +$$ o%ooo ..... +$$$$$$",
"++$$$$$$$$$+$$$+++$$$$$$ o o%%ooooooooo     oo   oo ... $$$+$$$+",
"+$$$$$$$++$$+$$++$$$$$$$+ oo%oooooo%ooooooooo ...  $   $++$$+$$+",
"$++$$+$++$$++++$$++$$+$++ o%%ooooo%%oooooo   .%%.. $$+$++$$++++$",
"$+$++$$++$+++++$$+$++$$+ oo%oooooo%ooo    + ..%%... +$$++$+++++$",
"++$++$$$$+++++$$++$++$$$ ooooooooooooo $$++ ....... +$$$$+++++$$",
"++$$$$$++++++$$+++$$$$$ oooooo%%ooooo $++++ ....... $$$++++++$$+",
"+$$$+$$+$++++$$++$$$+$$ ooooo%%%oooo $$+$+++ ..... $+$$+$++++$$+",
"$$$$+$++$++$$$$$$$$$+$ XXXXXX%%Xoooo $++$++$$ ... $$+$++$++$$$$$",
"$$$$$+++$$$$$$$$$$$$$+ XXXXXXXXXooo $+++$$$$$$   $$$$+++$$$$$$$$",
"$$$$+++$$$$++$$$$$$$++ XXXXXXXXXooo +++$$$$++$$$$$$$+++$$$$++$$$",
"$+$$+$$$$$+$$$$$$+$$+ XXX%XXXXXXoo $+$$$$$+$$$$$$+$$+$$$$$+$$$$$",
"+$$$$$$$$++$$$$++$$.  XX%%%XXXXXoo $$$$$$++$$$$++$$$$$$$$++$$$$+",
"$$$$$$$$$$$$$$++$$.oo XX%%%XXXXXoo $$$$$$$$$$$++$$$$$$$$$$$$$$++",
"$$$$$$$$$$$$$$$$$.%%ooXX%%%XXXXXoo $$$$$$$$$$$$$$$$$$$$$$$$$$$$$",
"$$$$$$+$$$$$$$$$$ %%o XXX%XXXXX ooo $$+$$$$$$$$$$$$$$$+$$$$$$$$$",
"$$$$++$$$+$$$$$$$ ooo oXXXXXXX %ooo ++$$$+$$$$$$$$$$++$$$+$$$$$$",
"++$$$$$$$$$+$$$+++ oo oooooooo ooooo $$$$$$+$$$+++$$$$$$$$$+$$$+",
"+$$$$$$$++$$+$$++$  oo oooooooo ooooo     $$+$$++$$$$$$$++$$+$$+",
"$++$$+$++$$++++   oo oo  ooooooo   oooo%o%  +++$$++$$+$++$$++++$",
"$+$++$$++$++++ %%oooooooo       $+$ oooo%o%o ++$$+$++$$++$+++++$",
"++$++$$$$++++ ooooooooo  +++++$$++$+ ooooooo +$$++$++$$$$+++++$$",
"++$$$$$++++++$ oooooo  ++++++$$+++$$$  ooooo $$+++$$$$$++++++$$+",
"+$$$+$$+$++++$$      $$+$++++$$++$$$+$$     +$$++$$$+$$+$++++$$+",
"$$$$+$++$++$$$$$$$$$+$++$++$$$$$$$$$+$++$++$$$$$$$$$+$++$++$$$$$",
"$$$$$+++$$$$$$$$$$$$$+++$$$$$$$$$$$$$+++$$$$$$$$$$$$$+++$$$$$$$$",
"$$$$+++$$$$++$$$$$$$+++$$$$++$$$$$$$+++$$$$++$$$$$$$+++$$$$++$$$",
"$+$$+$$$$$+$$$$$$+$$+$$$$$+$$$$$$+$$+$$$$$+$$$$$$+$$+$$$$$+$$$$$",
"+$$$$$$$$++$$$$++$$$$$$$$++$$$$++$$$$$$$$++$$$$++$$$$$$$$++$$$$+",
"$$$$$$$$$$$$$$++$$$$#########@++$$$$$$$$$$$$$$++$$$$$$$$$$$$$$++",
"$$$$$$$$$$$$$$$$$$$$#########@$$$$$$$$$$$$$$$$$$$$$$$$$$$$$$$$$$",
"$$$$$$+$$$$$$$$$$$$$$#O#######$$$$$$$$+$$$$$$$$$$$$$$$+$$$$$$$$$"
};
