/* XPM */
static char *_bb351ffbafb4f40ec9c51a5ba30ba80U0SSVpdRNrOnJSBm[] = {
/* columns rows colors chars-per-pixel */
"64 64 146 2 ",
"   c #669344",
".  c #6A9446",
"X  c #6D964A",
"o  c #6F984B",
"O  c #739749",
"+  c #74984C",
"@  c #7C9A4C",
"#  c #759A51",
"$  c #7B9C53",
"%  c #7E9F58",
"&  c #819D49",
"*  c #899F4D",
"=  c #839D53",
"-  c #8A9F53",
";  c #849F58",
":  c #86A04F",
">  c #8BA04E",
",  c #90A14F",
"<  c #87A150",
"1  c #8CA253",
"2  c #84A15C",
"3  c #8CA35B",
"4  c #94A353",
"5  c #9AA555",
"6  c #93A65B",
"7  c #9BA75A",
"8  c #96A85F",
"9  c #9CA85D",
"0  c #A1A757",
"q  c #A4A75A",
"w  c #A3A95C",
"e  c #AAAA5C",
"r  c #B1AC5F",
"t  c #86A360",
"y  c #8CA563",
"u  c #92A664",
"i  c #9AA762",
"p  c #97A961",
"a  c #9BAA64",
"s  c #91A768",
"d  c #94A96A",
"f  c #9BAB6C",
"g  c #9DAD72",
"h  c #A3AC64",
"j  c #ABAD64",
"k  c #A3AE6B",
"l  c #ABAF6A",
"z  c #B3AE63",
"x  c #BAAF64",
"c  c #B5AF68",
"v  c #A6B06E",
"b  c #ACB06D",
"n  c #BEB064",
"m  c #B3B16C",
"M  c #BBB26C",
"N  c #A3AE72",
"B  c #ABAF71",
"V  c #A4B073",
"C  c #ABB273",
"Z  c #A6B37B",
"A  c #AEB479",
"S  c #B2B373",
"D  c #BAB574",
"F  c #B3B67A",
"G  c #BBB779",
"H  c #B7B87D",
"J  c #BDB87C",
"K  c #E6994F",
"L  c #E69B51",
"P  c #E89F54",
"I  c #EAA355",
"U  c #EAA55A",
"Y  c #EDAA5D",
"T  c #C4B46D",
"R  c #C3B674",
"E  c #CAB674",
"W  c #C4B877",
"Q  c #C3B97D",
"!  c #CCBA7C",
"~  c #D4BB7B",
"^  c #EEB162",
"/  c #F0B464",
"(  c #F1B769",
")  c #F2B868",
"_  c #F2C577",
"`  c #F8CF76",
"'  c #F2C579",
"]  c #F4CB7C",
"[  c #F8CF78",
"{  c #FAD275",
"}  c #FDD977",
"|  c #F7D279",
" . c #F9D47A",
".. c #FCDA7C",
"X. c #AFB681",
"o. c #B6B780",
"O. c #BBBA82",
"+. c #B8BB8A",
"@. c #C3BB82",
"#. c #CDBD82",
"$. c #C8BF8B",
"%. c #D3BD81",
"&. c #C6C08F",
"*. c #CBC18C",
"=. c #CDC394",
"-. c #D2C59A",
";. c #F5CE83",
":. c #F6D184",
">. c #F9D583",
",. c #FDDB81",
"<. c #F6D28A",
"1. c #F9D688",
"2. c #F8D58D",
"3. c #FAD889",
"4. c #FAD88D",
"5. c #F6D591",
"6. c #FADB98",
"7. c #EAD4B6",
"8. c #EFDAB7",
"9. c #ECD6B8",
"0. c #EEDBBD",
"q. c #F0DBB7",
"w. c #F1DEBD",
"e. c #F9E6B5",
"r. c #F3E1BF",
"t. c #F4E2BD",
"y. c #F8E6BC",
"u. c #F9E7BE",
"i. c #FAE8BE",
"p. c #F1DFC1",
"a. c #F3E1C1",
"s. c #F5E4C3",
"d. c #F6E5C2",
"f. c #F3E2C4",
"g. c #F4E3C5",
"h. c #F4E4C6",
"j. c #F5E6C7",
"k. c #F9E7C3",
"l. c #F7E8C6",
"z. c #F9EAC3",
"x. c #FAEBC5",
"c. c #F6E7C8",
"v. c #F7E9C9",
"b. c #F7EACB",
"n. c #F9EBC9",
"m. c #F8EACD",
/* pixels */
"& & & &     & & &   & & & & & & & & & &     & & & O 4 4 5 w r z n { [ ` ' - 4 > *   & & & & & & & & & &     & & &   & & & & & & ",
"    & & & & & & & & &   & & &       & & & & & & & 1 5 1 e [ | | | { [ z w 5 > * * & &   & & &       & & & & & & & & &   & & &   ",
"  & & & & & & &     & &   & &     & & & & & & & + = w j ]  . . . .| [ e q 4 > *     & &   & &     & & & & & & &     & &   & &   ",
"&     & &   &     & &         & &     & &   & + = w l :.>.>.,.,. . .j j 7 @ > .   & &         & &     & &   &     & &         & ",
"&   &     & &     &           & &   &     & < $ 3 l :.1.3.u.i.u.>.>.M 8 - 4 &     &           & &   &     & &     &           & ",
"    &     & & & &           & &     &   . < 3 i k N 2.s.k.z.z.z.u.1.:.i 1 4 & & &           & &     &     & & & &           & & ",
"    & & & & &             & &       & & : 1 8 u f a.s.j.x.x.x.x.k.4.<.l 9 4 :             & &       & & & & &             & &   ",
"  & & &   & &   &         & &     & & & + 6 a f a.g.j.v.n.n.n.x.x.j.2.S y 7 < . &         & &     & & &   & &   &         & &   ",
"& & & &   &     &     & & & & & @ & & : $ i d p.f.j.c.v.-.n.n.n.n.l.s.H d 9 # X &     & & & & & & & & &   &     &     & & & & & ",
"& & & & &       & & & & & & & & & & & 1 8 y g a.f.j.j.c.=.v.v.n.n.v.j.a.C y = + * & & & & & & & & & & & &       & & & & & & & & ",
"& & & &       & & & &     & & & & & < 6 y f Z f.g.g.j.+.+.&.=.v.v.v.j.s.C p 3 4 > * &     & & & & & & &       & & & &     & & & ",
"&   & &   & & & & &   & & & & & & + 6 a d F f.j.j.g.f.O.O.O.j.c.v.v.v.j.r.b h 4 4 > X & & & & & &   & &   & & & & &   & & & & & ",
"  & & & & & & & &     & & & & . + 6 i k F f.j.j.g.f.Z F A F f.c.c.v.c.j.2.;.h 7 4 @ O & * & &     & & & & & & & &     & & & &   ",
"& & & & & & & & & & & & & & . + 6 i k A f.j.j.j.f.F V v k V a.f.j.c.j.j.r.;.] 7 5 4 4 1 > & .   & & & & & & & & & & & & & &     ",
"& & & & & & & & & & & & & & < 6 i k A f.j.c.c.j.f.C k a i a V a.f.j.j.O.S ;.] ' ' 5 4 4 4 < < & & & & & & & & & & & & & & & & & ",
"& & & & & &   & & & & & & : 1 8 k A f.j.c.v.c.g.a.v a 8 8 i V A a.f.a.H S l 6 7 ' ' 9 9 8 7 3 < : & & & & &   & & & & & & & & & ",
"& & & &     & & &   & & & < 6 a V f.j.v.v.v.c.f.F y 8 3 3 8 k C F a.a.F f u 7 7 7 ] ;.9.h i 8 6 < : & &     & & &   & & & & & & ",
"    & & & & & & & & &   : 1 8 s p.j.c.m.m.v.c.O.A a 6 # 1 p k g V a.p.V h a 7 7 9 h 0.0.k k i % # X & & & & & & & & &   & & &   ",
"  & & & & & & &     & & X 3 i 0.a.j.v.m.m.v.c.O.g y 8 3 $ a V g V p.p.k i 8 4 7 3 u b w.w.0.0.2 # < & & & & & &     & &   & &   ",
"&     & &   &     & &   X # 2 k a.j.v.m.m.m.c.X.g a p % 2 u g p.p.p.w.a 8 $ 1 $ 3 k C p.w.w.0.9.6 + X & &   &     & &         & ",
"&   &     & &     &     X # 2 k p.g.v.m.m.m.c.f.g k y 3 y f p.a.p.p.0.y % 3 1 $ t k p.p.p.p.y p 3 o &     & &     &           & ",
"    &     & & & &       . + 6 a g f.c.v.m.v.c.g.F f s u d w.p.a.p.p.k 2 $ 3 3 8 a s p.p.w.s a 8 # X &     & & & &           & & ",
"    & & & & &           . : 1 2 s V f.c.v.v.v.j.a.N f f w.w.r.a.p.f a 8 3 3 6 2 y 0.w.w.d k i $ + X & & & & &             & &   ",
"  & & &   & &   &         & < $ 2 V F g.c.v.c.c.f.Z N k ;.w.w.w.k k i 6 $ 6 i y v 0.0.s y i 6 + X & & &   & &   &         & &   ",
"& & & &   &     &     & & & & < 6 a V a.j.c.c.c.j.F C S :.;.w.S b h 8 6 $ i y s 0.0.s a i 6 < & & & & &   &     &     & & & & & ",
"& & & & &       & & & & & & & & 1 8 k A f.j.c.c.j.@.J D :.;.m l h a 8 8 i y s 0.w.0.k a 8 1 : & * & & & &       & & & & & & & & ",
"& & & &       & & & &     & & & : 1 p k V f.j.j.j.g.@.F B ;.;.l h h a a y f g w.w.0.k 2 $ 1 > > * & * &       & & & &     & & & ",
"&   & &   & & & & &   & & & & & & o 3 i d F f.f.g.g.o.J D :.;.w.l f k v f p.p.p.w.b y 9 4 4 1 1 > O > & . & & & @ &   & & & & & ",
"  & & & & & & & * X X * & & & X O 1 4 9 k C a.f.f.g.s.@.Q :.:.w.k S F F a.a.a.a.S d 3 9 4 4 4 @ @ 4 1 > & & & & &     & & & &   ",
"& & & & & & * & * > > > > > O O > 1 4 7 h b F a.a.s.s.@.Q >.t.t.D G J s.t.s.s.<.S l w 7 4 4 _ _ _ 4 4 4 > & * & & & & & & &     ",
"& & & & & * & > > > > > > > > > > 4 4 7 9 j S G a.s.s.y.#.! t.t.t.! y.y.y.y.t.>.:.j w 7 5 _ _ _ _ 5 5 4 4 > & * & & & & & & & & ",
"& & & * & > O > > 4 4 1 1 1 1 4 4 4 4 5 7 j k D J t.t.y.%.%.y.u.y.%.u.u.u.u.Q >.M j w _ _ 5 5 5 _ _ _ 5 4 , + & * & & & & & & & ",
"& & & & O O 4 4 _ _ _ _ _ _ _ _ _ _ _ _ ' ] m D W t.y.y.y.,.,.,.,.,.,.,.,.y.~  .M h e q 5 5 5 5 5 5 _ _ & @ 4 > * . & & & & & & ",
"    * > > 4 4 _ 4 4 4 @ 1 1 1 @ @ & 5 _ ' ] [ T E ! ..............,.,.,.,..... .| n r ' 0 5 5 & & & 5 _ _ 4 4 4 > & *   & & &   ",
"  & & > 4 4 _ 5 = & 4 1 + > > O @ 4 5 0 e ` [ T  ...................,.,.,.....} { { x ' 4 5 4 @ @ 4 4 5 _ _ 4 4 @ + & &   & &   ",
"& . O > 4 _ _ _ = 5 4 O O O O > > @ = q e e { { { ..................,.,.,.......{ { { e 5 - & , > O @ 4 4 _ _ @ @ > > X .     & ",
"& . * @ @ _ _ - - 5 @ O X X X > > @ 5 4 q n { { } } ..........~ ~ y.y.y.,.,.....{ { { [ q 4 = 4 > O > @ @ 4 _ _ @ 4 + X .     & ",
"    * @ @ 5 _ _ 5 & @ O . . & & X O 5 4 e { { { } } ..e.......! ! u.u.u.u.y..... .{ { { ` 7 0 4 + O > + @ 4 4 _ _ @ @ O X . & & ",
"    & > 4 5 _ _ = & @ + X : : X + @ 5 e ` { { { } ....e.u.! >.Q Q y.k.s.k.u.%.E  .{ { { { ` e - @ O & * > 4 4 & & _ @ O O * &   ",
"  & * > @ 5 5 _ 5 = $ $ + 1 1 $ = 7 e r { { { {  . . .t.t.t.>.J @.*.j.j.j.s.#.W E  .{ { { [ r 4 & > & > + 4 5 - 5 _ @ O O * &   ",
"& & & * @ 4 & _ _ = = 4 4 6 6 9 h j z [ { { { { { | D W t.r.Q @.$.=.c.c.j.j.O.D R | { { { { ` e 5 4 1 1 $ 5 - - 5 _ @ 1 > & & & ",
"& & & & > @ @ _ _ 4 4 7 9.9.i h l m M  .|  .{ ` [ M M D w.w.r.5.*.=.v.v.c.j.O.S M M { { { { { z e 9 7 7 7 1 1 1 _ _ 4 , > * & & ",
"& & & * O O @ 4 _ 4 4 = 2 9.9.0.S D >.>. . .| x z j l f 0.w.p.a.6.=.v.v.v.j.s.G M M { { { { | | z j h a 3 3 3 ' ' _ 4 @ O * & & ",
"&   & & X * > > _ 1 $ 6 8 i 0.w.w.t.1.>.>.>.M c j h 6 k 0.w.p.a.j.v.v.m.v.c.g.H S m j { |  . . .M k l h q.q.' ' ' 5 @ > & & & & ",
"  & & & * * * > > O + 1 6 p k w.r.s.y.y.1.Q D l h 3 2 i a k C p.g.c.v.m.v.c.j.H S h j | |  . .>.S S w.w.q.] ] 7 5 @ O > * & &   ",
"& & & & & * * & & & > < 4 8 y f a.s.s.s.s.s.D l a 8 6 8 i a d g f.j.v.v.v.c.j.H S b m M  .>.>.>.t.r.w.w.;.h 9 5 4 1 > * & &     ",
"& & & & & & & & & & * : < 3 i k F a.s.s.s.s.r.0.a 8 1 1 6 8 a k F f.j.v.v.c.j.a.F b m M :.Q t.t.t.r.w.k h 9 7 4 1 > & & & & & & ",
"& & & & & &   & & & & & & P U Y ^ ) a.s.s.s.C 0.9.9.1 1 1 1 6 a V F g.c.v.c.j.a.F C C S t.t.t.t.t.;.l h 9 7 $ 1 * * & & & & & & ",
"& & & &     & & &   & & K L P U Y ^ <.a.a.a.( ^ a % 7.< & : < 6 a V O.j.c.c.g.a.F g C S r.t.r.t.S b h 9 $ + > & &   & & & & & & ",
"    & & & & & & & & & K K K L I U Y / <.r.r./ ^ Y 8 1 X & & < # 2 s F O.j.g.f.a.A V C f w.w.w.N f y 8 1 < & & & & & &   & & &   ",
"  & & & & & & &     K K K & & X $ 9 h ;.;.w.w.^ Y U < : . & & + % k A O.f.f.a.F g f C w.w.r.<.f d a 8 3 < < : & . . & &   & &   ",
"&     & &   &     K K K     . : 4 2 u l b f w.q.U I < X .   . < 8 y p.a.a.a.a.N g b w.w.w.C C / ^ Y U 6 3 # < o X & &         & ",
"&   &     & &     K L . X X + 1 7 3 h a ;.;.h 3 ; 1 P .     . < 8 y V p.a.a.F N f b k k <.<.C F V u i Y U 6 1 + X & .         & ",
"    &     & & & K K . X o # 3 8 3 u l k ;.;.l h 9 $ O K     & 1 2 y V p.a.p.F C l h ;.B S 2.J F g d k y Y U 6 1 < X .       & & ",
"    & & & & &   K L . X + 3 6 2 y d C F w.w.w.a 3 = @ O K * < $ 2 s w.p.a.S S k k k :.t.t.s.a.a.p.w.0.0.0.9.9.9.+ X .     & &   ",
"  & & &   & &   K L X o # 6 p y 0.w.w.p.r.F ;.a h ; $ @ O > 4 ; u b w.r.r.S S k ;.;.:.:.H a.a.a.p.p.0.0.0.9.U I < X .     & &   ",
"& & & &   &     K L X < 9.9.9.0.0.w.p.a.C S f ;.] ; = 4 , 4 4 9 h b w.w.w.S k a ] ] ;.D t.r.a.p.p.w.k a 2 8 $ P P X . & & & & & ",
"& & & & &       K & & < 1 6 p 0.0.w.p.p.p.w.w.w.] 7 ' 4 4 4 7 9 h b w.w.m k a ] j ] m w.w.w.w.V v k a i 8 $ # + P L & & & & & & ",
"& & & &       & & & & X + 3 8 i a k v V w.w.0.q.9 7 ' ' _ ' 7 w h w.w.;.;.;.i ] q.q.w.w.f b v k a a p 6 $ # + < L L &     & & & ",
"&   & &   & & & & & . : < 1 6 8 i t a a y a a 9 7 4 = 4 4 ' ' ' ] ] ] ] ] h w 7 9 9 3 a a i i 8 6 $ 1 < X : & L K K   & & & & & ",
"  & & & & & & & &   . & : < < # $ 6 6 8 6 6 6 6 4 $ @ 4 > 4 4 ; 3 q.8.w 9 7 7 I I $ $ 7 6 6 3 # + : & & & & K K K     & & & &   ",
"& & & & & & & & & & & & & & . X : < < 1 1 1 1 1 < < > * > 1 @ $ 4 7 7 7 4 4 4 1 1 P P P P P P L L K K K K K K & & & & & & &     ",
"& & & & & & & & & & & & & & & & & & & & & & & & * * * & * * 1 1 4 4 4 4 1 < > : & : & L L L K K K K K K & & & & & & & & & & & & ",
"& & & & & &   & & & & & & & & & & & & & & @   @ @ @ & & & * : > > > > > & & . & & & & & & & & & & & & & & &   & & & & & & & & & "
};
