/* XPM */
static char *_21cca4bcfe946a68227c1efe2960ae7AgbvpNAhCXowL9a4[] = {
/* columns rows colors chars-per-pixel */
"64 64 15 1 ",
"  c #202020",
". c #297329",
"X c #4A944A",
"o c #659243",
"O c #669344",
"+ c #7F9B48",
"@ c #7F9C48",
"# c #6AB36A",
"$ c #6AB46A",
"% c #809D49",
"& c #B4CD5A",
"* c #D5EE7B",
"= c #8BD58B",
"- c #ACF6AC",
"; c #F6FFF6",
/* pixels */
"%%%%OO%%%O%%%%%%%%%%OO%%%O%%%%%%%%%%OO%%%O%%%%%%%%%%OO%%%O%%%%%%",
"OO%%%%%%%%%O%%%OOO%%%%%%%%%O%%%OOO%%%%%%%%%O%%%OOO%%%%%%%%%O%%%O",
"O%%%%%%%OO%%O%%OO%%%%%%%OO%%O%%OO%%%%%%%OO%%O%%OO%%%%%%%OO%%O%%O",
"%OO%%O%OO%%OOOO%%OO%%O%OO%%OOOO%%OO%%O%OO%%OOOO%%OO%%O%OO%%OOOO%",
"%O%OO%%OO%OOOOO%%O%OO%%OO%OOOOO%%O%OO%%OO%OOOOO%%O%OO%%OO%OOOOO%",
"OO%OO%%%%OOOOO%%OO%OO%%%%OOOOO%%OO%OO%%%%OOOOO%%OO%OO%%%%OOOOO%%",
"OO%%%%%OOOOOO%%OOO%%%%%OOOOOO%%OOO%%%%%OOOOOO%%OOO%%%%%OOOOOO%%O",
"O%%%O%%O%OOOO%%OO%%%O%%O%OOOO%%OO%%%O%%O%OOOO%%OO%%%O%%O%OOOO%%O",
"%%%%O%OO%OO%%%%%%%%%O%OO%OO%%%%%%%%%O%OO%OO%%%%%%%%%O%OO%OO%%%%%",
"%%%%%OOO%%%%%%%%%%%%%OOO%%%%%%%%%%%%%OOO%%%%%%%%%%%%%OOO%%%%%%%%",
"%%%%OOO%%%%OO%%%%%%%OOO%%%%OO%%%%%%%OOO%%%%OO%%%%%%%OOO%%%%OO%%%",
"%O%%O%%%%%O%%%%%%O%%O%%%%%O%%%%%%O%%O%%%%%O%%%%%%O%%O%%%%%O%%%%%",
"O%%%%%%%%OO%%%%OO%%%%%%%%OO%%%%OO%%%%%%%%OO%%%%OO%%%%%%%%OO%%%%O",
"%%%%%%%%%%%%%%OO%%%%%%%%%%%%%%OO%%%%%%%%%%%%%%OO%%%%%%%%%%%%%%OO",
"%%%%%%%%%%%%%%%%%%%%%%%%%%%%%%%%%%%%%%%%%%%%%%%%%%%%%%%%%%%%%%%%",
"%%%%%%O%%%%%%%%%%%%%%%O%%%%%%%%%%%%%%%O%%%%%%%%%%%%%%%O%%%%%%%%%",
"%%%%OO%%%O%%%%%%%%%%OO%%%O%%%%%%%%%%OO%%%O%%%%%%%%%%OO%%%O%%%%%%",
"OO%%%%%%%%%O%%%OOO%%%%%%%%%O%%%OOO%%%%%%%%%O%%%OOO%%%%%%%%%O%%%O",
"O%%%%%%%OO%%O%%OO%%%%%%%OO%%O%%OO%%%%%%%OO%%O%%OO%%%%%%%OO%%O%%O",
"%OO%%O%OO%%OOOO%%OO%%O%OO%%OOOO%%OO%%O%OO%%OOOO%%OO%%O%OO%%OOOO%",
"%O%OO%%OO%OOOOO%%O%OO%%OO%OOOOO%%O%OO%%OO%OOOOO%%O%OO%%OO%OOOOO%",
"OO%OO%%%%OOOOO%%OO%OO%%%%OOOOO       %%%%OOOOO%%OO%OO%%%%OOOOO%%",
"OO%%%%%OOOOOO%%OOO%%%%%OOOOO  $$$$$$- %OOOOOO%%OOO%%%%%OOOOOO%%O",
"O%%%O%%O%OOOO%%OO%%%O%%O%OO ;;;XXXX$=- O%OOOO%%OO%%%O%%O%OOOO%%O",
"%%%%O%OO%OO%%%%%%%%%O%OO%O ;;;;XXX$$$$= %OO%%%%%%%%%O%OO%OO%%%%%",
"%%%%%OOO%%%%%%%%%%%%%OOO% ;;;;;XX=$$$$= %%%%%%%%%%%%%OOO%%%%%%%%",
"%%%%OOO%%%%OO%%%%%%%OOO% ;;;;;;X===$*$X %%%OO%%%%%%%OOO%%%%OO%%%",
"%O%%O%%%%%O%%%%%%O%%O%% ;;;;;;X$==$*=$X %%O%%%%%%O%%O%%%%%O%%%%%",
"O%%%%%%%%OO%%%%OO%%%%% ;;;;;;$$$=$**X=- %OO%%%%OO%%%%%%%%OO%%%%O",
"%%%%%%%%%%%%%%OO%%%%%% ;;;;=$$$$$**X$=- %%%%%%OO%%%%%%%%%%%%%%OO",
"%%%%%%%%%%%%%%%%%%%%% =-;;$********X=-- %%%%%%%%%%%%%%%%%%%%%%%%",
"%%%%%%O%%%%%%%%%%%%%% =-X$X*******X=== %%%%%%%%%%%%%%%O%%%%%%%%%",
"%%%%OO%%%O%%%%%%%%%% =--X.&&&&&&&&X$$$ %%O%%%%%%%%%%OO%%%O%%%%%%",
"OO%%%%%%%%%O%%%OOO%% --XX.&&XX$$XXXXX %%%%%O%%%OOO%%%%%%%%%O%%%O",
"O%%%%%%%OO%%O%%OO%%% -XX.&&X==$$$XXX$ %%OO%%O%%OO%%%%%%%OO%%O%%O",
"%OO%%O%OO%%OOOO%%OO% -XX.&X===$$$$X= O%OO%%OOOO%%OO%%O%OO%%OOOO%",
"%O%OO%%OO%OOOOO%%O%O -X.&X===$$$$$= O%%OO%OOOOO%%O%OO%%OO%OOOOO%",
"OO%OO%%%%OOOOO%%OO%O -$XX=XXXX$$$= OO%%%%OOOOO%%OO%OO%%%%OOOOO%%",
"OO%%%%%OOOOOO%%OOO%%% ===XXXX$$== %%%%%OOOOOO%%OOO%%%%%OOOOOO%%O",
"O%%%O%%O%OOOO%%OO%%%O% ######==  %%%O%%O%OOOO%%OO%%%O%%O%OOOO%%O",
"%%%%O%OO%OO%%%%%%%%%O%o        +%%%%O%OO%OO%%%%%%%%%O%OO%OO%%%%%",
"%%%%%OOO%%%%%%%%%%%%%Ooo@@@@@@@+%%%%%OOO%%%%%%%%%%%%%OOO%%%%%%%%",
"%%%%OOO%%%%OO%%%%%%%OOo@@@@oo@@+%%%%OOO%%%%OO%%%%%%%OOO%%%%OO%%%",
"%O%%O%%%%%O%%%%%%O%%O%@@@@o@@@@+%O%%O%%%%%O%%%%%%O%%O%%%%%O%%%%%",
"O%%%%%%%%OO%%%%OO%%%%%@@@oo@@@@oO%%%%%%%%OO%%%%OO%%%%%%%%OO%%%%O",
"%%%%%%%%%%%%%%OO%%%%%%@@@@@@@@oo%%%%%%%%%%%%%%OO%%%%%%%%%%%%%%OO",
"%%%%%%%%%%%%%%%%%%%%%%@@@@@@@@@+%%%%%%%%%%%%%%%%%%%%%%%%%%%%%%%%",
"%%%%%%O%%%%%%%%%%%%%%%o@@@@@@@@+%%%%%%O%%%%%%%%%%%%%%%O%%%%%%%%%",
"%%%%OO%%%O%%%%%%%%%%OO%@@o@@@@@@%%%%OO%%%O%%%%%%%%%%OO%%%O%%%%%%",
"OO%%%%%%%%%O%%%OOO%%%%%%%%%O%%%OOO%%%%%%%%%O%%%OOO%%%%%%%%%O%%%O",
"O%%%%%%%OO%%O%%OO%%%%%%%OO%%O%%OO%%%%%%%OO%%O%%OO%%%%%%%OO%%O%%O",
"%OO%%O%OO%%OOOO%%OO%%O%OO%%OOOO%%OO%%O%OO%%OOOO%%OO%%O%OO%%OOOO%",
"%O%OO%%OO%OOOOO%%O%OO%%OO%OOOOO%%O%OO%%OO%OOOOO%%O%OO%%OO%OOOOO%",
"OO%OO%%%%OOOOO%%OO%OO%%%%OOOOO%%OO%OO%%%%OOOOO%%OO%OO%%%%OOOOO%%",
"OO%%%%%OOOOOO%%OOO%%%%%OOOOOO%%OOO%%%%%OOOOOO%%OOO%%%%%OOOOOO%%O",
"O%%%O%%O%OOOO%%OO%%%O%%O%OOOO%%OO%%%O%%O%OOOO%%OO%%%O%%O%OOOO%%O",
"%%%%O%OO%OO%%%%%%%%%O%OO%OO%%%%%%%%%O%OO%OO%%%%%%%%%O%OO%OO%%%%%",
"%%%%%OOO%%%%%%%%%%%%%OOO%%%%%%%%%%%%%OOO%%%%%%%%%%%%%OOO%%%%%%%%",
"%%%%OOO%%%%OO%%%%%%%OOO%%%%OO%%%%%%%OOO%%%%OO%%%%%%%OOO%%%%OO%%%",
"%O%%O%%%%%O%%%%%%O%%O%%%%%O%%%%%%O%%O%%%%%O%%%%%%O%%O%%%%%O%%%%%",
"O%%%%%%%%OO%%%%OO%%%%%%%%OO%%%%OO%%%%%%%%OO%%%%OO%%%%%%%%OO%%%%O",
"%%%%%%%%%%%%%%OO%%%%@@@@@@@@@+OO%%%%%%%%%%%%%%OO%%%%%%%%%%%%%%OO",
"%%%%%%%%%%%%%%%%%%%%@@@@@@@@@+%%%%%%%%%%%%%%%%%%%%%%%%%%%%%%%%%%",
"%%%%%%O%%%%%%%%%%%%%%@o@@@@@@@%%%%%%%%O%%%%%%%%%%%%%%%O%%%%%%%%%"
};
