/* XPM */
static char *_90e2ad8d5344f82a6e046aad3e8929aJCy2UGc7LB6I5LxE[] = {
/* columns rows colors chars-per-pixel */
"64 64 26 1 ",
"  c #669344",
". c #809D49",
"X c #40713C",
"o c #55864A",
"O c #2F5538",
"+ c #243D34",
"@ c #24161A",
"# c #381C24",
"$ c #1A2731",
"% c #663F39",
"& c #6A4925",
"* c #1F001B",
"= c #460A14",
"- c #452A2F",
"; c #9A5138",
": c #7F4126",
"> c #BB8D76",
", c #A0684C",
"< c #E8B988",
"1 c #6A241E",
"2 c #966B3C",
"3 c #C34329",
"4 c #98251A",
"5 c #FFBC04",
"6 c #FF8D04",
"7 c white",
/* pixels */
"  . .. .. .   ..  . .. .. .   ..  . .. .. .   ..  . .. .. .   ..",
"...... .  .  ......... .  .  ......... .  .  ......... .  .  ...",
".......   ..... X......   .............   .............   ......",
"......   ....  XoO....   .... .X.O....   .... .X......   .... ..",
". .. . .....  X  oO. .X..... .XoXoO. .X..... .XoX... . ..... ...",
" .. .......  Oo  o O.XoX ..  Oo oo O.XoX ..  Oo oX  .......  ...",
" ..........oOo    o Xo  X  .Ooo   o Xo  X  .Ooo  oX............ ",
"...........Xoo    o oo   X  Xo    o oo   X  Xo     X X .........",
"........ ..oXo   oOoXo    XXOoooooOoXo    XXOoooooXOX X ........",
"... .... ..oOOXXX+OXoo    oXO+OOO+OXoo    oXO+OOOXXOX  X.....  .",
".. ........XXoooXXXXoo    XOXXXXoXXXoo    XOXXXXoXOXo  oX.. . ..",
"  ........oOXoooOX  OOXOOOOOXooooX  OOXOOOOOXooooXXX    X.. ... ",
" .......  XOXX+OXo  oOXOOXXOOXooXo  oOXOOXXOOXooXoOX    o .. .. ",
".  .. .   OOO+OXX    oOOOX OOOOOX    oOOOX OOOOOXo+Xo oXOX.    .",
". .  ..  . O+XoOo    oXOX  o+OOXo    oXOX  o+OOXoo+OXXXXOoX    .",
"  .      XXOoooXo    oXOo   X@@#      XXo   X@@XoOOXXX  oXO   ..",
"  . ..  ooOOXoooXo  oXOXo    OO     oX+Xo    O++XO++OOOOOOX   ..",
"......  oXO+OOOOOOOOOOXo     XXOOOOOOOXo     XOOOOOOOXoooooX ...",
"....... XO XOOXXOXooXXOo     XXoooooXXOo     XOXXOOXXXoooooO ...",
"......  OX  XXooXXooXX$+XooXOOoooooooX$+XooXO+X XOOXXXXoooXO. ..",
". .. . oOo  oXo  XXoXOOXXXXXXXoooooooOXXXXXXXOo  O+OO++%OXXo ...",
" .. ..oOX    XX   OXO+XXoooooXXX&OXXOOXXoooXXX   O++O@@#@+X  ...",
" .....oOX    oOOO oO+OXXoooooXO*==%--XXooooXXo   +++OOOX+X..... ",
"...... +Xo oXO-%@  OO+OXXooXXO=;:>=@&=XXXooXo    +++OOX OX......",
"......XO+OXXOO+@@ XOOOO$-%O-X=:;,<>===O$-%O#X    O+OOX   O......",
"... ..+XoooooXXO+OOOOO+O@--#=:1,,,<>,=O@@--+OOOOOOOOXo   oO..  .",
".. ...OXoo  ooX++XXXOOXoO@@=::2,,,>=2,=O$@$OXoooXOOXXo    oO. ..",
"  ....OXXo  XX+OOXOOOXo  OX=;::;;:=2==;=XXOXXoooXXOOOo   oXO... ",
" .... XO$---$+OOXXOOXX   O=1:=;:,:=2==1=XXOXXoooXXXOOOOXXOO  .. ",
".  ..oXO@@#@OOOXooOXXo    O==1=1:==2===XooOOOXXXXoooXXXXooXO   .",
". .  ooXO++OOOXX oOXXo    O 1=12===2=..  .O$@@-Xoo  oXXo   oO  .",
"  .      XXOoooXo      oooXO =:====2 ......OX@@XoOOXXX  oXO   ..",
"  . ..  ooOOXoooXo  oXoooooO  ====. .....3..OXO+OO++OOOOOOX   ..",
"......  oXO+OOOOOOOOOXOoooXO ..=....... 456 .OOOOOOOOXoooooX ...",
"....... XO XOOXXOXoooooOOOOX ..X....... 454X.X+XXOOXXXoooooO ...",
"......  OX  XXooXXoooooOXoooX.OoX......%%X%%.+X XOOXXXXoooXO. ..",
". .. . oOo  oXo  XXoooXOoooXOOX oX.. .O.  %.XXo  O+OO++%OXXo ...",
" .. ..oOX    XX  XXOXOOOooXOOXX  Xo .OXOO..OOX   O++O@@#@+X  ...",
" .....oOX    oOOO++++Oo OOOOXX    XoOXo XOOOXo   +++OOOX+X..... ",
"...... +Xo oXO-%@++++X   OOXXo     XOX   XXOXo   +++OOX OX......",
"......XO+OXXOO+@@+O+Xo    OXXo     OXo    O#Oo   O+OOX   O......",
"... ..+XoooooXXO+OOOXo    oX++OOO oOXo    o+OOOOOOOOXo   oO..  .",
".. ...OXoo  ooX++XXXoo    XOXXXXooOXoo    XOXXXXXOOXXo    oO. ..",
"  ....OXXo  XX+OOX oOXXoXX+OXXXooO oOXXXXX+OXXXoXXOOOo   oXO... ",
" .... XO$---$+OOXo  oOOOXXXOXXooOo  oOOOXXXOXXXXXXXOOOOXXOO  .. ",
".  ..oXO@@#@OOOXoo   oXXXXoOOOXOoo   oXXXXoOXOOOXoooXXXXooXO   .",
". .  ooXO++OOOXX o   oXXX  X+++o     oXXX  X@@-Xoo  oXXo   oO  .",
"  .    XXXOOO+Xoo     XOX   Xo Xo     XOX   Xo Xo     XoooXO  ..",
"  .    oXXOOOO+XX    XOXo   oo Oo    XOXo   oo Oo    oOXXXXO  ..",
".....   oooXOOO++OOOO+Oo     XXO+OOOO+Oo     XXO+OOXOOO--Xo  ...",
"......   ooXXOXXooooXXOo     oXXXoooXXOo     oXXXoooooo+@X......",
"......     oXOXXoooooX@Oo  oXOOXXooooX@Oo  oXOOXXooooooOXo... ..",
". .. .     ooOOXoooooOOXOXOOXXOXXooooOOXOXOOXXOXXooo oXXX .. ...",
" .. .....  oooOOOXXXO+XXooooooXXOXXXO+XXooooooXXOXXXXO+o...  ...",
" ........   oo+@@#%%-OXoooooooO@@#%%-OXoooooooO@@#%%OXX........ ",
".........   oXX$@@#@@OXXooooXO+$@@#@@OXXooooXO+$@@#@@X..........",
"........ .  oXXXXOOOX$O++OOO@@OXXOOOX$O++OOO@@OXXOOOXo.. .......",
"... .... .  XXXXXXXXXO@@@--#@@OXXXXXXO@@@--#@@OXXXXXX .. ....  .",
".. ........ oXXXXXXXXXX+@@@@+XXXXXXXXXX+@@@@+XXXXXXo ...... . ..",
"  ......... ..  o  XXXXXXXXXX  oo  XXXXXXXXXX  oo ......... ... ",
" .......  .. ..  ..oXXXXXXXoo..  ..oXXXXXXXoo..  .......  .. .. ",
".  .. .  ..    ..  . XXXXoo    ..  . XXXXoo    ..  .. .  ..    .",
". .  ..  .     .. .  ..  .     .. .  ..  .     .. .  ..  .     .",
". .  ....     ..  .  ....     ..  .  ....     ..  .  ....     .."
};
