/* XPM */
static char *_8d6b99b635e4a6ccabc2e0360dd37ccWUicEn88omzvaRON[] = {
/* columns rows colors chars-per-pixel */
"64 64 27 1 ",
"  c #809D49",
". c #669344",
"X c #40713C",
"o c #55864A",
"O c #2F5538",
"+ c #A5AB37",
"@ c #243D34",
"# c #B6CC45",
"$ c #452A2F",
"% c #C9955A",
"& c #E5B181",
"* c #24161A",
"= c #663F39",
"- c #381C24",
"; c #1A2731",
": c #7E1F1C",
"> c #441719",
", c #C34329",
"< c #C66151",
"1 c #98251A",
"2 c #A73419",
"3 c #121111",
"4 c #766E68",
"5 c #9D9885",
"6 c #B2AD96",
"7 c #935D54",
"8 c white",
/* pixels */
" .  . ...  .. .  .  . ...  .. .  .  . ...  .. .  .  . ...  .  ..",
" . .. ..         . .. ..         . .. ..         . .. ..      ..",
"  ...     .X      ...             ...             ...       ..  ",
" ...    ..XoO    ...    . X O    ...    . X      ...    .   .  .",
" .     ..X..oO . X     . XoXoO . X     . XoX   . .     .    .+  ",
"      ..Oo..o.O XoX.  ..Oo.oo.O XoX.  ..Oo.oX..       ..   .  + ",
"      oOo....o.Xo..X.. Ooo...o.Xo..X.. Ooo..oX            ..  + ",
"      Xoo....o.oo...X..Xo....o.oo...X..Xo.....X.X.          .   ",
"   .  oXo...oOoXo....XXOoooooOoXo....XXOoooooXOX.X.          +  ",
"   .  oOOXXX@OXoo....oXO@OOO@OXoo....oXO@OOOXXOX..X     ..  #+  ",
"      XXoooXXXXoo....XOXXXXoXXXoo....XOXXXXoXOXo..oX  . .   +o. ",
"     oOXoooOX..OOXOOOOOXooooX..OOXOOOOOXooooXXX....X  .   ..    ",
"   ..XOXX@OXo..oOXOOXXOOXooXo..oOXOOXXOOXooXoOX....o.  .  ..    ",
". ...OOO@OXX....oOOOX.OOOOOX....oOOOX.OOOOOXo@Xo.oXOX ....  ..  ",
"  .. .O@XoOo....oXOX..o@OOXo....oXOX..o@OOXoo@OXXXXOoX....  . + ",
"....XXOoooXoo...oXOo...X@@Xoo...oXOo...XOXoooXXXXooXO...   . #..",
" ..ooOOXoooXoo.oXOXo....O@OXoo.oXOXo....Xoo..oXXo...oO..   .#o. ",
" ..oXO@OOOOOOOOOOXoo....XO@OOOOOOXoo....Xo.....XoooXO .     +o  ",
"  .XO.XOOXXOXOXXXOo.....XO@@XOXXXOo.....Oo....oOXXXXO      ..  .",
" ..OX..XXooXOXXXX@@OXXXO@OOOOXXXX@@OXXXOO@OOXOOO$$Xo.  %&&  .   ",
" .oOo..oXo..OOXXOOXOXooXOOXXOOXXOOXOXooXXXoooooo@*X   .%&&.    .",
" oOX....XX..XO@O@XoXOooXXOXXXO@O@XoXOooXXXooooooOXo  ..$$$X..  .",
" oOX....oOOOOO@@Oo.XXOOOO@@@OO@@Oo.XXOOOXXooo.oXXX.  .==X==.. ..",
" .@Xo.oXO$=*@@@@X...XX@@OX@@@@@@X...XX@@XOXXXXO@o   .  ..=   ...",
" XO@OXXOO@**@@@Xo....O@OooO@@@@Xo....O@O**-==OXX            ... ",
" @XoooooXXO@@@OXo....oOoooXO@@OXo....oOo;**-**X             .   ",
" OXoo..ooX@@XOXoo....XoooooXXOXoo....XooXXOOOXo  .  .           ",
" OXXo..XX@OOO.oOXoooXOXooXXXO.oOXoooXOXoXXXXXX.  .       ...    ",
".XO;$$$;@OOXX..oOOOOXXO@OO@OX..oOOOOXXO@XXXXo.       %&&  ..    ",
"oXO**-*OOOXoo...XXXXXo@OXXOXo...XXXXXo@Ooo.         .%&&.     . ",
"ooXO@@OOOXX.o...oXXX..@OXXOXo...oXXX..@OO.       ....$$$X.    . ",
"....XXOoooXoo...oXOo...X@@XOXoooXXXXooXOO ..  . .. .==X==. .    ",
" ..ooOOXoooXoo.oXOXo....O@OXoo..oXXo...oO..   ..     ..=   .    ",
" ..oXO@OOOOOOOOOOXoo....XO@Xo.....XoooXOO.  . .  .         .  ..",
"  .XO.XOOXXOXOXXXOo.....XO@Oo....oOXXXO .      %&& .. ..     .. ",
" ..OX..XXooXOXXXX@@OXXXO@OOO@OOXOOO$$OO      ..%&&...        .. ",
" .oOo..oXo..OOXXOOXOXooXOOXXXoooooo@*X   %&&  =$$$==  %&&   .  .",
" oOX....XX..XO@O@XoXOooXXOXXXooooooOXo  .%&&. oX=Xo  .%&%.   .# ",
" oOX....oOOOOO@@Oo.XXOOOO@@XXooo.oXXX. ..$$$X..      .$=$. . .##",
" .@Xo.oXO$=*@@@@X...XX@@OX@XOXXXXO@o   .==X==.       oX=Xo..  .+",
" XO@OXXOO@**@@@Xo....O@OooO**-==OXX      ..=    %&&          ...",
" @XoooooXXO@@@OXo....oOoooX;**-**X             .%&%.         +  ",
" OXoo..ooX@@XOXoo....XoooooXXOOOXo  .        ..:>$$.    %&& #   ",
" OXXo..XX@OOO.oOXoooXOXooXXXXXXXX  %&&   %&&  :,:>=o  ..%&%...  ",
".XO;$$$;@OOXX..oOOOOXXO@OO@XXXXo. .%&%. .%&&.:<,:1>*>>>>>>>>.   ",
"oXO**-*OOOXoo...XXXXXo@OXXOoo.   .==$$...$$$:<<,11:>:22<<,23    ",
"ooXO@@OOOXOXoooXXXXooXO... ..     =XX=o.==X>,<2,11:112,<<,23 #  ",
"..XXXOOO@XXoo..oXXo...oO..   ..          .3<<,<,111112,,,,23 #+ ",
"..oXXOOOO@Xo.....XoooXO .     .  .  . .   3<<,<4411:1,<<,<,3 .+o",
"...oooXOOOOo....oOXXXXO      . %&& .. ..  3<<<5554::1,<<,<<3....",
" ...ooXXOXO@OOXOOO$$Xo.  %&&  .%&&...     3<<663354:12,,<<,3. ..",
" .....oXOXXXoooooo@*X   .%&&. =$$$==  %&& 3<56633554,======3  ..",
" .....ooOOXXooooooOXo  ..$$$X.oX=Xo  .%&%.336556655644555563    ",
"    ..oooOXXooo.oXXX.  .==X==..      .$=$. 3=77777==45==6563 .# ",
"    ...oo@XOXXXXO@o   .  ..=         oX=Xo.36553355656776563 .##",
"    ...oXX**-==OXX              %&&        36553356655775563  .+",
"   . ..oXX;**-**X      %&&     .%&%.       365566566 &&      ...",
"   . ..XXXXXOOOXo  .  .%&&.   .==$$.    %&&365555556&&& %&&  +  ",
"      .oXXXXXXXX.  . ..$$$X. . =XX=o  ..%&%. .&&&&&&&&..%&%.#   ",
"      .  .XXXXo.     .==X==..         ..$$=.. &&&&&&  ..$$=...  ",
"   ..  .  oo.          ..=         ..  oXXX=  &&&&&..  oXXX=.   ",
". ..  ......       ..       ..  . ..  ....  .. && ..  ....      ",
"  .. .....  ..  . ..  ....  . ..  .. .....  . ..  .. .....   #  ",
"..         .   ...     .          . .    .       +o .    +  .   "
};
